<?xml version="1.0" encoding="utf-8"?>
<!-- Generator: Adobe Illustrator 25.2.3, SVG Export Plug-In . SVG Version: 6.00 Build 0)  -->
<svg version="1.1" id="Layer_1" xmlns="http://www.w3.org/2000/svg" xmlns:xlink="http://www.w3.org/1999/xlink" x="0px" y="0px"
	 viewBox="0 0 260 220" style="enable-background:new 0 0 260 220;" xml:space="preserve">
<style type="text/css">
	.st0{fill:#F58A97;}
	.st1{fill:#F07281;}
	.st2{fill:#ADE194;}
	.st3{fill:#97DA7B;}
	.st4{fill:#F9F7F8;}
</style>
<g transform="translate(-15411 -4254)">
	<path class="st0" d="M15530,4343c0-23.8,19.3-43,43-43c23.8,0,43,19.3,43,43c0,17.5-10.6,33.3-26.8,39.8v12.7
		c0,0.8-0.6,1.4-1.4,1.4c-0.3,0-0.6-0.1-0.8-0.3l-15.7-10.6C15548.2,4385.1,15530,4366.1,15530,4343z"/>
	<path class="st1" d="M15544,4332.9c3.6-16.3,16.2-29,32.4-32.8c-1.3-0.1-2.6-0.2-3.9-0.2c-23.8,0-43,19.3-43,43
		c0,13.9,6.7,27,18.1,35.1l0,0c3.2,2.3,6.6,4.1,10.2,5.4c0.7-3.2,1-6.5,1-9.9c0-12.2-4.6-24-12.8-33
		C15544.1,4338.6,15543.4,4335.7,15544,4332.9L15544,4332.9z"/>
	<path class="st2" d="M15552,4374.7c0-23.8-19.3-43-43-43c-23.8,0-43,19.3-43,43c0,17.5,10.6,33.3,26.8,39.8v12.7
		c0,0.8,0.6,1.4,1.4,1.4c0.3,0,0.6-0.1,0.8-0.3l15.6-10.8C15533.8,4416.8,15552,4397.8,15552,4374.7L15552,4374.7z"/>
	<path class="st3" d="M15505.8,4419.3c0-3.9-2.1-7.6-5.5-9.5c-20.5-12-27.4-38.4-15.4-58.9c5.3-9.1,13.9-16,24-19.2
		c-23.9,0.1-43,19.5-42.9,43.2c0.1,17.4,10.7,33.1,26.8,39.6v12.7c0,0.8,0.6,1.4,1.4,1.4c0.3,0,0.6-0.1,0.8-0.3l10.7-7.4
		L15505.8,4419.3L15505.8,4419.3z"/>
	<g transform="translate(21.905 27.006)">
		<path class="st4" d="M15560.6,4317.5l8.4-8.4c0.8-0.8,0.8-2,0-2.7l0,0l-5.8-5.8c-0.8-0.8-2-0.8-2.7,0l-8.4,8.4l-8.4-8.4
			c-0.8-0.8-2-0.8-2.7,0l-5.8,5.8c-0.8,0.8-0.8,2,0,2.7l8.4,8.4l-8.4,8.4c-0.8,0.8-0.8,2,0,2.7l5.8,5.8c0.8,0.8,2,0.8,2.7,0l0,0
			l8.4-8.4l8.4,8.4c0.8,0.8,2,0.8,2.7,0l0,0l5.8-5.8c0.8-0.8,0.8-2,0-2.7l0,0L15560.6,4317.5z"/>
		<path class="st4" d="M15476,4364.9h7.8c0.3,0,0.5-0.1,0.7-0.3l23.4-23.3c0.4-0.4,0.4-1.1,0-1.5l-7-7.2c-0.4-0.4-1.1-0.4-1.5,0l0,0
			l-19,18.9l-4.8-6c-0.2-0.2-0.4-0.2-0.6-0.1l-8.9,6.8c-0.2,0.2-0.2,0.4-0.1,0.6l0,0l9,11.5c0,0.1,0.1,0.1,0.1,0.2
			C15475.5,4364.8,15475.7,4364.9,15476,4364.9L15476,4364.9z"/>
	</g>
</g>
</svg>
