<svg xmlns="http://www.w3.org/2000/svg" xmlns:xlink="http://www.w3.org/1999/xlink" width="154.954" height="153.905" viewBox="0 0 154.954 153.905">
  <defs>
    <linearGradient id="linear-gradient" x1="1.091" y1="1.163" x2="0.386" y2="0.408" gradientUnits="objectBoundingBox">
      <stop offset="0" stop-color="#daf5fe"/>
      <stop offset="1" stop-color="#e9f9fd"/>
    </linearGradient>
    <linearGradient id="linear-gradient-2" x1="-0.818" y1="-1.695" x2="1.822" y2="2.7" gradientUnits="objectBoundingBox">
      <stop offset="0" stop-color="#ffea6a"/>
      <stop offset="1" stop-color="#ffb73e"/>
    </linearGradient>
    <linearGradient id="linear-gradient-3" x1="1.141" y1="0.253" x2="3.165" y2="-1.087" gradientUnits="objectBoundingBox">
      <stop offset="0" stop-color="#4f88ff"/>
      <stop offset="1" stop-color="#467ef7"/>
    </linearGradient>
    <linearGradient id="linear-gradient-4" x1="1.156" y1="-1.472" x2="0.451" y2="0.263" gradientUnits="objectBoundingBox">
      <stop offset="0" stop-color="#f6d544"/>
      <stop offset="1" stop-color="#fec91a"/>
    </linearGradient>
    <linearGradient id="linear-gradient-5" x1="0.278" y1="-0.522" x2="0.567" y2="1.027" gradientUnits="objectBoundingBox">
      <stop offset="0" stop-color="#ffb73e"/>
      <stop offset="1" stop-color="#ffd564"/>
    </linearGradient>
    <linearGradient id="linear-gradient-6" x1="0.855" y1="-0.355" x2="0.144" y2="1.356" gradientUnits="objectBoundingBox">
      <stop offset="0" stop-color="#2b5682"/>
      <stop offset="1" stop-color="#0e1542"/>
    </linearGradient>
    <linearGradient id="linear-gradient-7" x1="1.297" y1="-0.28" x2="0.11" y2="0.881" gradientUnits="objectBoundingBox">
      <stop offset="0" stop-color="#00105d"/>
      <stop offset="1" stop-color="#0f2891"/>
    </linearGradient>
    <linearGradient id="linear-gradient-12" x1="1.194" y1="-0.092" x2="0.197" y2="0.804" gradientUnits="objectBoundingBox">
      <stop offset="0" stop-color="#ffe799"/>
      <stop offset="1" stop-color="#fec523"/>
    </linearGradient>
    <linearGradient id="linear-gradient-13" x1="0.901" y1="1.088" x2="0.184" y2="0.218" xlink:href="#linear-gradient-12"/>
    <linearGradient id="linear-gradient-14" x1="1.002" y1="-0.139" x2="0.179" y2="0.909" xlink:href="#linear-gradient-12"/>
    <linearGradient id="linear-gradient-15" x1="0.874" y1="0.979" x2="0.115" y2="0.102" xlink:href="#linear-gradient-12"/>
    <linearGradient id="linear-gradient-16" x1="-0.021" y1="-0.346" x2="0.342" y2="0.297" xlink:href="#linear-gradient-7"/>
    <linearGradient id="linear-gradient-17" x1="0.367" y1="0.302" x2="1.039" y2="1.263" gradientUnits="objectBoundingBox">
      <stop offset="0" stop-color="#fedccd"/>
      <stop offset="1" stop-color="#ffc7b6"/>
    </linearGradient>
    <linearGradient id="linear-gradient-18" x1="0" y1="0.5" x2="1" y2="0.5" xlink:href="#linear-gradient-7"/>
    <linearGradient id="linear-gradient-19" x1="0.162" y1="1.602" x2="1.197" y2="-1.187" xlink:href="#linear-gradient-17"/>
    <linearGradient id="linear-gradient-20" x1="0" y1="0.5" x2="1" y2="0.5" xlink:href="#linear-gradient-7"/>
    <linearGradient id="linear-gradient-21" x1="0.308" y1="1.698" x2="0.771" y2="-1.193" xlink:href="#linear-gradient-17"/>
    <linearGradient id="linear-gradient-22" x1="0.516" y1="0.411" x2="0.749" y2="2.003" gradientUnits="objectBoundingBox">
      <stop offset="0" stop-color="#4f88ff"/>
      <stop offset="1" stop-color="#4073e2"/>
    </linearGradient>
    <linearGradient id="linear-gradient-23" x1="0.698" y1="0.003" x2="0.293" y2="1.06" xlink:href="#linear-gradient-7"/>
    <linearGradient id="linear-gradient-24" x1="0.187" y1="1.857" x2="0.442" y2="0.807" xlink:href="#linear-gradient-17"/>
    <linearGradient id="linear-gradient-25" x1="0.224" y1="0.742" x2="1.399" y2="-0.91" xlink:href="#linear-gradient-17"/>
    <linearGradient id="linear-gradient-26" x1="0.061" y1="1.328" x2="1.522" y2="-1.033" xlink:href="#linear-gradient-17"/>
    <linearGradient id="linear-gradient-27" x1="0.121" y1="-0.334" x2="0.822" y2="0.994" xlink:href="#linear-gradient-7"/>
    <linearGradient id="linear-gradient-28" x1="-1.457" y1="3.259" x2="3.859" y2="-4.349" xlink:href="#linear-gradient-17"/>
    <linearGradient id="linear-gradient-29" x1="1.321" y1="1.605" x2="3.321" y2="4.278" xlink:href="#linear-gradient-17"/>
    <linearGradient id="linear-gradient-30" x1="0" y1="0.5" x2="1" y2="0.5" xlink:href="#linear-gradient-17"/>
  </defs>
  <g id="Grupo_86367" data-name="Grupo 86367" transform="translate(861.385 -1882.716)">
    <path id="Trazado_116127" data-name="Trazado 116127" d="M-725.854,2015.439a58.9,58.9,0,0,1-10.345,8.4c-26.794,17.891-57.422,12.734-66.891,10.972-15.278-2.844-28.175-4.85-39.255-14.86-25.178-22.748-23.954-70.2-4.714-99.6,2.281-3.485,21.491-31.96,52.185-35.973.751-.1,1.311-.154,1.8-.205,4.748-.5,34.173-3.157,58.165,16.945a71.559,71.559,0,0,1,14.087,15.983C-702.08,1946.046-702.02,1990.873-725.854,2015.439Z" transform="translate(0 -0.246)" fill="url(#linear-gradient)"/>
    <g id="Grupo_86377" data-name="Grupo 86377" transform="translate(-780.345 1892.972)">
      <g id="Grupo_86371" data-name="Grupo 86371" transform="translate(0 7.406)">
        <g id="Grupo_86367-2" data-name="Grupo 86367">
          <path id="Trazado_116128" data-name="Trazado 116128" d="M-752.032,1947.169a.185.185,0,0,1-.159-.089c-.128-.211-.256-.429-.38-.649a.187.187,0,0,1,.072-.254.187.187,0,0,1,.254.071c.121.216.247.431.372.638a.187.187,0,0,1-.062.256A.186.186,0,0,1-752.032,1947.169Z" transform="translate(755.271 -1914.999)" fill="#91e7fa"/>
          <path id="Trazado_116129" data-name="Trazado 116129" d="M-754.282,1934.99a.188.188,0,0,1-.172-.115c-.193-.466-.372-.945-.532-1.427a.186.186,0,0,1,.119-.235.186.186,0,0,1,.235.118c.157.473.333.944.523,1.4a.187.187,0,0,1-.1.243A.184.184,0,0,1-754.282,1934.99Zm-1.164-3.782a.187.187,0,0,1-.182-.149c-.017-.083-.034-.166-.05-.249-.081-.414-.151-.836-.206-1.252a.186.186,0,0,1,.16-.209.187.187,0,0,1,.209.16c.055.409.123.823.2,1.23.016.082.032.162.049.244a.186.186,0,0,1-.144.221A.237.237,0,0,1-755.446,1931.208Zm-.438-3.933a.187.187,0,0,1-.187-.183c0-.115,0-.23,0-.346,0-.392.011-.789.033-1.177a.187.187,0,0,1,.2-.175.185.185,0,0,1,.176.2c-.022.382-.032.77-.032,1.156,0,.112,0,.226,0,.339a.186.186,0,0,1-.184.189Zm.312-3.945a.163.163,0,0,1-.032,0,.185.185,0,0,1-.151-.215c.088-.5.195-1,.318-1.49a.187.187,0,0,1,.226-.135.187.187,0,0,1,.135.227c-.122.48-.227.973-.313,1.463A.187.187,0,0,1-755.572,1923.329Zm1.055-3.815a.187.187,0,0,1-.067-.011.187.187,0,0,1-.108-.241c.181-.473.38-.945.594-1.4a.187.187,0,0,1,.248-.091.187.187,0,0,1,.091.248c-.211.45-.407.913-.584,1.378A.186.186,0,0,1-754.517,1919.514Zm1.753-3.547a.19.19,0,0,1-.1-.028.187.187,0,0,1-.06-.257c.266-.43.551-.857.847-1.265a.185.185,0,0,1,.26-.042.186.186,0,0,1,.042.26c-.29.4-.57.82-.831,1.243A.187.187,0,0,1-752.764,1915.967Zm2.388-3.155a.188.188,0,0,1-.126-.048.187.187,0,0,1-.011-.264c.341-.372.7-.736,1.068-1.084a.187.187,0,0,1,.264.008.186.186,0,0,1-.008.263c-.361.342-.714.7-1.05,1.066A.186.186,0,0,1-750.376,1912.812Zm2.936-2.649a.188.188,0,0,1-.15-.075.187.187,0,0,1,.038-.261c.406-.3.828-.593,1.254-.863a.186.186,0,0,1,.257.058.186.186,0,0,1-.057.257c-.418.266-.832.551-1.231.848A.186.186,0,0,1-747.44,1910.163Zm3.384-2.048a.189.189,0,0,1-.169-.105.187.187,0,0,1,.088-.249c.454-.218.923-.423,1.394-.609a.186.186,0,0,1,.242.1.185.185,0,0,1-.1.242c-.462.183-.924.385-1.37.6A.18.18,0,0,1-744.056,1908.115Zm3.711-1.37a.185.185,0,0,1-.18-.139.185.185,0,0,1,.132-.228c.453-.12.916-.226,1.377-.316l.109-.021a.186.186,0,0,1,.217.149.188.188,0,0,1-.15.218l-.1.02c-.453.089-.909.192-1.353.31A.173.173,0,0,1-740.345,1906.745Zm9.35-.324a.185.185,0,0,1-.035,0c-.489-.095-.986-.172-1.478-.231a.187.187,0,0,1-.163-.208.187.187,0,0,1,.207-.163c.5.06,1.008.139,1.505.236a.186.186,0,0,1,.147.219A.186.186,0,0,1-730.994,1906.421Zm-5.447-.327a.187.187,0,0,1-.186-.173.186.186,0,0,1,.173-.2c.5-.036,1-.054,1.5-.054a.194.194,0,0,1,.2.186.184.184,0,0,1-.186.187c-.5,0-1,.018-1.487.052Z" transform="translate(756.073 -1905.668)" fill="#91e7fa"/>
          <path id="Trazado_116130" data-name="Trazado 116130" d="M-719.732,1907.57a.187.187,0,0,1-.064-.012c-.231-.083-.466-.163-.7-.238a.186.186,0,0,1-.121-.235.186.186,0,0,1,.235-.12c.236.076.476.158.712.242a.185.185,0,0,1,.112.239A.186.186,0,0,1-719.732,1907.57Z" transform="translate(747.903 -1905.965)" fill="#91e7fa"/>
        </g>
        <g id="Grupo_86368" data-name="Grupo 86368" transform="translate(12.939 11.578)">
          <path id="Trazado_116131" data-name="Trazado 116131" d="M-704.068,1921.76a.188.188,0,0,1-.17-.109c-.1-.228-.21-.453-.317-.667a.187.187,0,0,1,.083-.25.187.187,0,0,1,.25.084c.109.219.219.447.323.679a.186.186,0,0,1-.092.247A.182.182,0,0,1-704.068,1921.76Z" transform="translate(731.265 -1920.714)" fill="#91e7fa"/>
          <path id="Trazado_116132" data-name="Trazado 116132" d="M-730.193,1952.211c-.376,0-.75-.009-1.12-.028a.186.186,0,0,1-.176-.2.182.182,0,0,1,.2-.176c.363.019.729.032,1.1.028q.186,0,.372,0h0a.187.187,0,0,1,.188.182.186.186,0,0,1-.183.19C-729.941,1952.211-730.067,1952.211-730.193,1952.211Zm2.78-.189a.186.186,0,0,1-.185-.161.187.187,0,0,1,.16-.21c.4-.054.81-.121,1.214-.2.079-.015.159-.031.238-.048a.187.187,0,0,1,.22.145.187.187,0,0,1-.145.221l-.242.048c-.411.08-.826.149-1.235.2Zm-6.288-.1a.141.141,0,0,1-.032,0c-.49-.083-.984-.185-1.467-.3a.187.187,0,0,1-.137-.225.187.187,0,0,1,.226-.137c.475.117.96.217,1.441.3a.185.185,0,0,1,.152.215A.186.186,0,0,1-733.7,1951.917Zm10.082-.769a.187.187,0,0,1-.177-.128.186.186,0,0,1,.118-.235c.466-.154.93-.326,1.381-.51a.186.186,0,0,1,.243.1.186.186,0,0,1-.1.243c-.459.189-.931.363-1.405.52A.191.191,0,0,1-723.619,1951.149Zm3.567-1.559a.187.187,0,0,1-.163-.1.188.188,0,0,1,.072-.254c.429-.237.853-.493,1.26-.758a.186.186,0,0,1,.258.054.188.188,0,0,1-.055.259c-.416.27-.846.53-1.282.772A.187.187,0,0,1-720.052,1949.59Zm3.211-2.2a.186.186,0,0,1-.143-.067.186.186,0,0,1,.024-.262c.376-.312.745-.643,1.1-.98a.186.186,0,0,1,.263.005.185.185,0,0,1-.005.263c-.359.345-.735.68-1.117,1A.185.185,0,0,1-716.841,1947.393Zm2.749-2.756a.187.187,0,0,1-.119-.043.187.187,0,0,1-.025-.262c.312-.376.613-.768.9-1.166a.187.187,0,0,1,.26-.044.187.187,0,0,1,.043.261c-.289.4-.6.8-.913,1.187A.186.186,0,0,1-714.092,1944.637Zm2.193-3.217a.189.189,0,0,1-.09-.023.188.188,0,0,1-.073-.254c.238-.427.462-.869.668-1.312a.186.186,0,0,1,.248-.09.186.186,0,0,1,.09.248c-.209.45-.438.9-.68,1.335A.186.186,0,0,1-711.9,1941.42Zm1.563-3.567a.194.194,0,0,1-.058-.009.187.187,0,0,1-.119-.236c.154-.466.293-.94.413-1.413a.187.187,0,0,1,.226-.135.187.187,0,0,1,.135.227c-.122.481-.263.965-.42,1.439A.185.185,0,0,1-710.336,1937.854Zm.873-3.8-.025,0a.185.185,0,0,1-.16-.209c.065-.485.112-.977.142-1.464a.188.188,0,0,1,.2-.175.187.187,0,0,1,.175.2c-.03.5-.079,1-.145,1.491A.186.186,0,0,1-709.463,1934.058Zm.149-3.89a.187.187,0,0,1-.186-.176c-.027-.488-.072-.981-.133-1.466a.186.186,0,0,1,.161-.208.187.187,0,0,1,.209.161c.063.493.108.995.136,1.492a.186.186,0,0,1-.176.2Zm-.574-3.852a.186.186,0,0,1-.181-.142c-.116-.477-.251-.954-.4-1.417a.186.186,0,0,1,.12-.235.188.188,0,0,1,.235.121c.152.471.288.957.407,1.442a.186.186,0,0,1-.137.225A.208.208,0,0,1-709.888,1926.315Z" transform="translate(738.356 -1921.59)" fill="#91e7fa"/>
          <path id="Trazado_116133" data-name="Trazado 116133" d="M-738.379,1958.613a.18.18,0,0,1-.065-.012c-.242-.09-.477-.182-.7-.275a.186.186,0,0,1-.1-.244.186.186,0,0,1,.243-.1c.219.091.45.182.688.271a.186.186,0,0,1,.109.239A.187.187,0,0,1-738.379,1958.613Z" transform="translate(739.259 -1929.3)" fill="#91e7fa"/>
        </g>
        <g id="Grupo_86370" data-name="Grupo 86370" transform="translate(4.895 4.762)">
          <path id="Trazado_116134" data-name="Trazado 116134" d="M-741.456,1942.153a.252.252,0,0,0,.292,0l2.5-1.761a13.289,13.289,0,0,0,4.195.992l1.445,2.689a.25.25,0,0,0,.261.129l3.617-.587a.251.251,0,0,0,.207-.2l.519-3.008a13.315,13.315,0,0,0,3.667-2.268l2.924.88a.251.251,0,0,0,.276-.093l2.142-2.973a.252.252,0,0,0,0-.292l-1.761-2.5a13.321,13.321,0,0,0,.992-4.2l2.689-1.444a.251.251,0,0,0,.129-.262l-.587-3.616a.251.251,0,0,0-.206-.207l-3.008-.52a13.3,13.3,0,0,0-2.267-3.666l.88-2.925a.252.252,0,0,0-.094-.276l-2.972-2.141a.251.251,0,0,0-.292,0l-2.5,1.761a13.294,13.294,0,0,0-4.195-.992l-1.445-2.689a.251.251,0,0,0-.261-.129l-3.617.587a.251.251,0,0,0-.207.2l-.519,3.008a13.315,13.315,0,0,0-3.667,2.268l-2.924-.88a.25.25,0,0,0-.276.093l-2.142,2.973a.251.251,0,0,0,0,.291l1.761,2.5a13.316,13.316,0,0,0-.992,4.2l-2.689,1.444a.251.251,0,0,0-.129.262l.587,3.616a.251.251,0,0,0,.206.207l3.007.52a13.314,13.314,0,0,0,2.268,3.666l-.88,2.925a.25.25,0,0,0,.094.276Z" transform="translate(749.712 -1911.856)" fill="#91e7fa"/>
          <g id="Grupo_86369" data-name="Grupo 86369" transform="translate(12.643 12.641)">
            <path id="Trazado_116135" data-name="Trazado 116135" d="M-729.748,1935.352a3.535,3.535,0,0,1-1.3-.25,3.507,3.507,0,0,1-1.941-1.882,3.537,3.537,0,0,1,1.84-4.645,3.513,3.513,0,0,1,2.7-.042,3.509,3.509,0,0,1,1.941,1.882,3.538,3.538,0,0,1-1.84,4.646h0A3.525,3.525,0,0,1-729.748,1935.352Zm1.291-.549h0Zm-1.292-5.961a2.962,2.962,0,0,0-1.18.245,2.977,2.977,0,0,0-1.549,3.91,2.957,2.957,0,0,0,1.634,1.584,2.96,2.96,0,0,0,2.276-.035h0a2.977,2.977,0,0,0,1.549-3.91,2.952,2.952,0,0,0-1.634-1.584A2.979,2.979,0,0,0-729.75,1928.842Z" transform="translate(733.282 -1928.282)" fill="#bdeffb"/>
          </g>
          <path id="Trazado_116136" data-name="Trazado 116136" d="M-731.384,1939.179l-.176,0c-.04,0-.08,0-.12,0l-.105,0-.052,0h-.011l.029-.559a8.608,8.608,0,0,0,1.82-.1c.1-.017.206-.036.309-.056a8.575,8.575,0,0,0,6.88-8.583,8.621,8.621,0,0,0-.109-1.183,8.571,8.571,0,0,0-9.822-7.079,8.574,8.574,0,0,0-7.19,8.444,8.659,8.659,0,0,0,.111,1.378,8.551,8.551,0,0,0,1.9,4.145l-.428.361a9.114,9.114,0,0,1-2.026-4.416,9.162,9.162,0,0,1-.118-1.468,9.135,9.135,0,0,1,7.66-9,9.13,9.13,0,0,1,10.463,7.542,9.115,9.115,0,0,1,.119,1.465,9.135,9.135,0,0,1-7.66,9h0A9.236,9.236,0,0,1-731.384,1939.179Z" transform="translate(747.587 -1913.948)" fill="#bdeffb"/>
        </g>
      </g>
      <g id="Grupo_86376" data-name="Grupo 86376" transform="translate(34.315)">
        <g id="Grupo_86372" data-name="Grupo 86372">
          <path id="Trazado_116137" data-name="Trazado 116137" d="M-709.216,1919.6a.188.188,0,0,1-.159-.09c-.13-.213-.255-.435-.373-.659a.187.187,0,0,1,.078-.252.187.187,0,0,1,.252.079c.114.217.235.432.362.638a.186.186,0,0,1-.062.256A.185.185,0,0,1-709.216,1919.6Z" transform="translate(711.086 -1901.238)" fill="#91e7fa"/>
          <path id="Trazado_116138" data-name="Trazado 116138" d="M-710.921,1911.355a.186.186,0,0,1-.179-.137c-.077-.282-.143-.569-.2-.853-.046-.24-.086-.484-.119-.729a.186.186,0,0,1,.16-.209.186.186,0,0,1,.209.16c.032.237.071.476.116.707.054.276.119.555.192.827a.186.186,0,0,1-.131.229A.182.182,0,0,1-710.921,1911.355Zm-.372-4.138h-.016a.187.187,0,0,1-.17-.2,12.031,12.031,0,0,1,.249-1.6.186.186,0,0,1,.223-.141.186.186,0,0,1,.14.223,11.681,11.681,0,0,0-.241,1.546A.186.186,0,0,1-711.293,1907.218Zm1.085-4.01a.179.179,0,0,1-.079-.019.185.185,0,0,1-.089-.248,12.08,12.08,0,0,1,.785-1.41.188.188,0,0,1,.259-.055.186.186,0,0,1,.055.258,11.744,11.744,0,0,0-.761,1.367A.187.187,0,0,1-710.208,1903.208Zm2.4-3.39a.185.185,0,0,1-.132-.055.186.186,0,0,1,0-.263,12.051,12.051,0,0,1,1.223-1.054.187.187,0,0,1,.261.038.187.187,0,0,1-.037.261,11.658,11.658,0,0,0-1.185,1.021A.186.186,0,0,1-707.806,1899.818Zm3.424-2.349a.185.185,0,0,1-.17-.11.186.186,0,0,1,.093-.246,12.023,12.023,0,0,1,1.513-.564.187.187,0,0,1,.232.126.185.185,0,0,1-.125.231,11.738,11.738,0,0,0-1.466.546A.181.181,0,0,1-704.382,1897.469Zm4.026-1.02a.187.187,0,0,1-.186-.173.186.186,0,0,1,.172-.2,11.87,11.87,0,0,1,1.614-.009.186.186,0,0,1,.175.2.187.187,0,0,1-.2.175,11.692,11.692,0,0,0-1.564.009Z" transform="translate(711.48 -1896.044)" fill="#91e7fa"/>
          <path id="Trazado_116139" data-name="Trazado 116139" d="M-690.988,1897.253a.188.188,0,0,1-.064-.011c-.229-.083-.463-.159-.7-.227a.186.186,0,0,1-.127-.231.186.186,0,0,1,.231-.127c.242.07.484.149.72.234a.186.186,0,0,1,.112.239A.185.185,0,0,1-690.988,1897.253Z" transform="translate(706.964 -1896.184)" fill="#91e7fa"/>
        </g>
        <g id="Grupo_86373" data-name="Grupo 86373" transform="translate(7.276 6.55)">
          <path id="Trazado_116140" data-name="Trazado 116140" d="M-681.9,1905.606a.187.187,0,0,1-.172-.114c-.094-.223-.2-.448-.306-.667a.187.187,0,0,1,.084-.25.186.186,0,0,1,.25.084c.113.227.219.458.316.689a.187.187,0,0,1-.1.244A.177.177,0,0,1-681.9,1905.606Z" transform="translate(697.502 -1904.555)" fill="#91e7fa"/>
          <path id="Trazado_116141" data-name="Trazado 116141" d="M-696.386,1922.974a11.891,11.891,0,0,1-1.336-.075.187.187,0,0,1-.165-.206.185.185,0,0,1,.206-.164,11.635,11.635,0,0,0,1.538.07h0a.186.186,0,0,1,.186.182.185.185,0,0,1-.182.19C-696.219,1922.973-696.3,1922.974-696.386,1922.974Zm2.764-.326a.186.186,0,0,1-.181-.143.187.187,0,0,1,.138-.225,11.754,11.754,0,0,0,1.471-.455.186.186,0,0,1,.24.108.186.186,0,0,1-.107.241,12.151,12.151,0,0,1-1.517.469A.169.169,0,0,1-693.622,1922.648Zm3.752-1.62a.186.186,0,0,1-.156-.084.188.188,0,0,1,.053-.259,11.556,11.556,0,0,0,1.226-.929.186.186,0,0,1,.262.019.186.186,0,0,1-.018.263,12.012,12.012,0,0,1-1.264.959A.187.187,0,0,1-689.869,1921.028Zm2.971-2.8a.186.186,0,0,1-.111-.037.185.185,0,0,1-.038-.261,11.913,11.913,0,0,0,.838-1.291.186.186,0,0,1,.253-.072.187.187,0,0,1,.072.254,12.237,12.237,0,0,1-.865,1.332A.189.189,0,0,1-686.9,1918.225Zm1.848-3.646a.187.187,0,0,1-.055-.008.186.186,0,0,1-.124-.232,11.7,11.7,0,0,0,.35-1.5.183.183,0,0,1,.214-.153.185.185,0,0,1,.153.214,12.131,12.131,0,0,1-.36,1.547A.187.187,0,0,1-685.051,1914.579Zm.493-4.058a.187.187,0,0,1-.186-.176,11.776,11.776,0,0,0-.184-1.528.188.188,0,0,1,.149-.218.188.188,0,0,1,.218.149,12.264,12.264,0,0,1,.189,1.577.186.186,0,0,1-.176.2Z" transform="translate(701.071 -1905.487)" fill="#91e7fa"/>
          <path id="Trazado_116142" data-name="Trazado 116142" d="M-701.141,1926.268a.178.178,0,0,1-.06-.01c-.24-.082-.479-.171-.708-.267a.186.186,0,0,1-.1-.243.186.186,0,0,1,.244-.1c.222.092.454.179.686.259a.187.187,0,0,1,.116.237A.187.187,0,0,1-701.141,1926.268Z" transform="translate(702.024 -1909.413)" fill="#91e7fa"/>
        </g>
        <g id="Grupo_86375" data-name="Grupo 86375" transform="translate(2.807 2.774)">
          <path id="Trazado_116143" data-name="Trazado 116143" d="M-703.162,1916.79a.142.142,0,0,0,.165,0l1.412-1a7.511,7.511,0,0,0,2.373.561l.817,1.521a.143.143,0,0,0,.148.073l2.046-.333a.14.14,0,0,0,.117-.115l.295-1.7a7.515,7.515,0,0,0,2.074-1.283l1.654.5a.143.143,0,0,0,.156-.052l1.212-1.682a.142.142,0,0,0,0-.165l-1-1.412a7.536,7.536,0,0,0,.561-2.373l1.521-.817a.144.144,0,0,0,.073-.149l-.332-2.045a.143.143,0,0,0-.116-.118l-1.7-.294a7.529,7.529,0,0,0-1.283-2.074l.5-1.654a.142.142,0,0,0-.053-.156l-1.681-1.212a.141.141,0,0,0-.165,0l-1.412,1a7.516,7.516,0,0,0-2.374-.561l-.817-1.521a.142.142,0,0,0-.148-.073l-2.046.332a.142.142,0,0,0-.117.115l-.294,1.7a7.506,7.506,0,0,0-2.074,1.283l-1.655-.5a.142.142,0,0,0-.156.052l-1.211,1.682a.142.142,0,0,0,0,.165l1,1.412a7.516,7.516,0,0,0-.561,2.373l-1.521.817a.142.142,0,0,0-.073.149l.332,2.045a.144.144,0,0,0,.116.118l1.7.294a7.508,7.508,0,0,0,1.283,2.074l-.5,1.655a.143.143,0,0,0,.053.156Z" transform="translate(707.833 -1899.65)" fill="#91e7fa"/>
          <g id="Grupo_86374" data-name="Grupo 86374" transform="translate(7.031 7.031)">
            <path id="Trazado_116144" data-name="Trazado 116144" d="M-696.572,1913.027a2.123,2.123,0,0,1-1.949-1.278,2.123,2.123,0,0,1,1.1-2.788,2.123,2.123,0,0,1,2.788,1.1,2.123,2.123,0,0,1-1.1,2.788h0A2.121,2.121,0,0,1-696.572,1913.027Zm.727-.431h0Zm-.733-3.25a1.549,1.549,0,0,0-.617.128,1.563,1.563,0,0,0-.813,2.052,1.563,1.563,0,0,0,2.052.813h0a1.564,1.564,0,0,0,.813-2.052A1.564,1.564,0,0,0-696.577,1909.346Z" transform="translate(698.695 -1908.787)" fill="#bdeffb"/>
          </g>
          <path id="Trazado_116145" data-name="Trazado 116145" d="M-697.5,1915.193h-.1c-.056,0-.112,0-.169-.006h0l.028-.559a4.766,4.766,0,0,0,1-.055h0a4.7,4.7,0,0,0,3.075-1.9,4.69,4.69,0,0,0,.892-2.751,4.774,4.774,0,0,0-.062-.766,4.729,4.729,0,0,0-5.417-3.9,4.728,4.728,0,0,0-3.965,4.657,4.645,4.645,0,0,0,.061.76,4.717,4.717,0,0,0,1.049,2.286l-.427.361a5.274,5.274,0,0,1-1.174-2.558,5.316,5.316,0,0,1-.068-.849,5.288,5.288,0,0,1,4.435-5.209,5.285,5.285,0,0,1,6.059,4.366,5.378,5.378,0,0,1,.069.857,5.242,5.242,0,0,1-1,3.077,5.243,5.243,0,0,1-3.438,2.125l-.01,0A5.384,5.384,0,0,1-697.5,1915.193Z" transform="translate(706.667 -1900.797)" fill="#bdeffb"/>
        </g>
      </g>
    </g>
    <g id="Grupo_86378" data-name="Grupo 86378" transform="translate(-861.172 1927.049)" opacity="0.88">
      <path id="Trazado_116146" data-name="Trazado 116146" d="M-857.421,1940.916a1.333,1.333,0,0,0-2.417.972c1.227,7.273,2.821,19.987.8,28.4-2.966,12.369-7.824,48.622,26.739,56.595C-832.295,2026.881-837.468,1970.322-857.421,1940.916Z" transform="translate(861.108 -1940.327)" fill="#bdeffb"/>
      <path id="Trazado_116147" data-name="Trazado 116147" d="M-851.752,1960.528s.039.062.112.192.175.318.3.573a18.985,18.985,0,0,1,.913,2.261c.178.5.337,1.055.517,1.664q.117.461.243.958c.087.332.151.68.231,1.037q.058.269.117.546t.1.566c.064.383.145.777.2,1.184s.108.826.163,1.254.086.868.133,1.317c.1.9.132,1.836.18,2.809.012.486.012.98.018,1.481,0,.252.005.5.008.76s-.012.51-.018.769q-.021.775-.042,1.57c-.026.544-.054,1.055-.1,1.6-.089,1.092-.2,2.185-.326,3.3s-.252,2.234-.38,3.374c-.063.568-.131,1.14-.186,1.713q-.044.429-.088.862c-.025.288-.05.576-.075.865a59.51,59.51,0,0,0-.22,6.995,38.725,38.725,0,0,0,.835,6.9,33.76,33.76,0,0,0,2.043,6.4l.321.752.353.729c.236.483.456.97.721,1.425s.5.924.763,1.368l.807,1.3.2.319.213.307.422.609c.279.4.542.81.838,1.18l.85,1.116.208.272.219.26.431.512.836.994.837.917.795.871.787.79.74.741c.119.119.232.24.351.352l.349.325,1.258,1.17c.188.178.37.345.547.493l.49.427.773.673.645.562,0,0a.094.094,0,0,1,.009.132.093.093,0,0,1-.125.014l-.691-.507-.83-.609c-.324-.244-.712-.506-1.111-.843-.808-.662-1.818-1.435-2.889-2.429l-.841-.753-.856-.836-.9-.883-.9-.973a42.4,42.4,0,0,1-3.656-4.54l-.876-1.314c-.286-.449-.552-.92-.833-1.387s-.534-.96-.795-1.454l-.391-.745-.351-.773a35.183,35.183,0,0,1-2.26-6.636,39.066,39.066,0,0,1-.925-7.174l-.021-.454-.007-.453-.011-.906c0-.6.016-1.206.031-1.808.034-.6.056-1.2.1-1.794s.084-1.188.145-1.776l.083-.88q.049-.439.1-.873c.061-.582.133-1.157.2-1.73.142-1.143.3-2.268.45-3.37s.285-2.188.395-3.234c.031-.26.052-.529.075-.793s.053-.536.071-.779q.051-.777.1-1.535c.015-.252.035-.5.046-.753s.013-.5.02-.743c.012-.491.031-.975.037-1.451-.018-.951.009-1.873-.043-2.755a46.04,46.04,0,0,0-.419-4.8,34.223,34.223,0,0,0-.706-3.652,21.857,21.857,0,0,0-.7-2.293c-.1-.259-.176-.457-.232-.586s-.088-.2-.088-.2a.094.094,0,0,1,.043-.125.094.094,0,0,1,.119.034Z" transform="translate(858.992 -1944.973)" fill="#fff" opacity="0.51"/>
    </g>
    <g id="Grupo_86380" data-name="Grupo 86380" transform="translate(-851.737 1882.716)">
      <g id="Grupo_86379" data-name="Grupo 86379">
        <path id="Trazado_116148" data-name="Trazado 116148" d="M-815.293,1882.718l-.323,0a29.687,29.687,0,0,0-29.524,29.848h29.848Z" transform="translate(847.993 -1882.716)" fill="url(#linear-gradient-2)"/>
        <path id="Trazado_116149" data-name="Trazado 116149" d="M-806.569,1912.639l16.084-25.148a29.7,29.7,0,0,0-15.7-4.7q-.274,0-.546,0Z" transform="translate(839.139 -1882.733)" fill="#94ecff"/>
        <path id="Trazado_116150" data-name="Trazado 116150" d="M-806.354,1913.972l29.818,1.338c.009-.187.016-.374.021-.562a29.831,29.831,0,0,0-13.754-25.924Z" transform="translate(839.053 -1884.124)" fill="url(#linear-gradient-3)"/>
        <path id="Trazado_116151" data-name="Trazado 116151" d="M-819.363,1925.089l-29.465-1.026a29.86,29.86,0,0,0,20.954,29.542l8.657-28.312A.158.158,0,0,0-819.363,1925.089Z" transform="translate(848.847 -1892.245)" fill="url(#linear-gradient-4)"/>
        <path id="Trazado_116152" data-name="Trazado 116152" d="M-808.9,1921.443l-7.992,28.707a26.446,26.446,0,0,0,7.424,1.082,29.857,29.857,0,0,0,28.305-18.763Z" transform="translate(841.482 -1891.642)" fill="url(#linear-gradient-5)"/>
        <path id="Trazado_116153" data-name="Trazado 116153" d="M-778.7,1932.728a29.75,29.75,0,0,0,2.185-9.942h0l-29.816-1.369Z" transform="translate(839.048 -1891.636)" fill="#83d8ff"/>
      </g>
      <path id="Trazado_116154" data-name="Trazado 116154" d="M-806.678,1955.166c-.418,0-.84-.009-1.253-.027a.373.373,0,0,1-.357-.389.374.374,0,0,1,.389-.356c.4.017.813.025,1.221.025a28.429,28.429,0,0,0,22.9-11.654.373.373,0,0,1,.521-.082.373.373,0,0,1,.082.521,29.312,29.312,0,0,1-10.111,8.7A29.129,29.129,0,0,1-806.678,1955.166Z" transform="translate(839.499 -1896.521)" fill="#fff" opacity="0.63"/>
      <path id="Trazado_116155" data-name="Trazado 116155" d="M-773.028,1910.312a.373.373,0,0,1-.369-.321,28.38,28.38,0,0,0-11.992-19.359.373.373,0,0,1-.1-.519.373.373,0,0,1,.519-.1,29.125,29.125,0,0,1,12.307,19.869.374.374,0,0,1-.317.422A.426.426,0,0,1-773.028,1910.312Z" transform="translate(834.259 -1884.384)" fill="#94ecff"/>
      <path id="Trazado_116156" data-name="Trazado 116156" d="M-838.138,1898.582a.366.366,0,0,1-.194-.055.372.372,0,0,1-.123-.512,28.987,28.987,0,0,1,13.28-11.544.373.373,0,0,1,.49.195.374.374,0,0,1-.194.49,28.243,28.243,0,0,0-12.94,11.248A.373.373,0,0,1-838.138,1898.582Z" transform="translate(846.465 -1883.574)" fill="#fff" opacity="0.63"/>
      <path id="Trazado_116157" data-name="Trazado 116157" d="M-824.845,1956.549l-.377-.156a40.779,40.779,0,0,1-7.156-3.872.373.373,0,0,1-.1-.517.373.373,0,0,1,.517-.1,40.338,40.338,0,0,0,6.651,3.646l4.342-13.906a.374.374,0,0,1,.467-.245.373.373,0,0,1,.245.467Z" transform="translate(845.089 -1896.236)" fill="#fff" opacity="0.63"/>
      <path id="Trazado_116158" data-name="Trazado 116158" d="M-818.14,1930.132a.367.367,0,0,1-.111-.017.373.373,0,0,1-.245-.467l.825-2.641-15.167-.423a.372.372,0,0,1-.362-.382.372.372,0,0,1,.372-.363h.01l15.5.432a.489.489,0,0,1,.388.206.487.487,0,0,1,.069.434l-.924,2.959A.374.374,0,0,1-818.14,1930.132Zm.8-3.116h0Z" transform="translate(845.24 -1892.655)" fill="#fff" opacity="0.63"/>
    </g>
    <g id="Grupo_86381" data-name="Grupo 86381" transform="translate(-860.862 1930.977)">
      <rect id="Rectángulo_15601" data-name="Rectángulo 15601" width="15.474" height="56.862" rx="2.054" transform="translate(20.695 48.287)" fill="#91e7fa"/>
      <path id="Trazado_116159" data-name="Trazado 116159" d="M-844.858,2047.758c0-.412-.858-.815-1.731-.815h-12.465c-.873,0-1.651.4-1.651.815v25.26c0,.411.779.958,1.651.958h12.465c.873,0,1.731-.547,1.731-.958Z" transform="translate(860.706 -1968.827)" fill="#91e7fa"/>
      <path id="Trazado_116160" data-name="Trazado 116160" d="M-767.672,2001.638h-12.455a1.691,1.691,0,0,0-1.6,1.745v58.381a1.9,1.9,0,0,0,1.6,1.957h12.455a2.243,2.243,0,0,0,1.981-1.957v-58.381A2.041,2.041,0,0,0-767.672,2001.638Z" transform="translate(842.503 -1958.385)" fill="#91e7fa"/>
      <rect id="Rectángulo_15602" data-name="Rectángulo 15602" width="15.474" height="74.387" rx="2.054" transform="translate(40.457 30.762)" fill="#91e7fa"/>
      <path id="Trazado_116161" data-name="Trazado 116161" d="M-676.237,1947.1a1.782,1.782,0,0,0-1.756-1.668h-12.466a1.666,1.666,0,0,0-1.625,1.668v101.665a1.8,1.8,0,0,0,1.625,1.816h12.466a1.918,1.918,0,0,0,1.756-1.816Z" transform="translate(821.843 -1945.431)" fill="#91e7fa"/>
      <rect id="Rectángulo_15603" data-name="Rectángulo 15603" width="15.474" height="86.133" rx="2.054" transform="translate(84.828 19.017)" fill="#91e7fa"/>
      <rect id="Rectángulo_15604" data-name="Rectángulo 15604" width="15.474" height="99.929" rx="2.054" transform="translate(108.132 5.407)" fill="#91e7fa"/>
    </g>
    <g id="Grupo_86382" data-name="Grupo 86382" transform="translate(-812.051 1894.257)">
      <path id="Trazado_116162" data-name="Trazado 116162" d="M-792.679,1936.667l-.268-.491,23.982-13.1,22.338,9.819,19.2-18.833,22.538-13.3.284.482-22.479,13.267-19.421,19.05-.173-.076-22.26-9.784Z" transform="translate(796.278 -1898.415)" fill="url(#linear-gradient-6)"/>
      <circle id="Elipse_4965" data-name="Elipse 4965" cx="2.583" cy="2.583" r="2.583" transform="translate(0 36.851) rotate(-26.565)" fill="url(#linear-gradient-7)"/>
      <circle id="Elipse_4966" data-name="Elipse 4966" cx="2.583" cy="2.583" r="2.583" transform="translate(24.079 26.64) rotate(-72.231)" fill="url(#linear-gradient-7)"/>
      <circle id="Elipse_4967" data-name="Elipse 4967" cx="2.583" cy="2.583" r="2.583" transform="translate(47.13 31.733)" fill="url(#linear-gradient-7)"/>
      <circle id="Elipse_4968" data-name="Elipse 4968" cx="2.583" cy="2.583" r="2.583" transform="translate(65.825 13.284)" fill="url(#linear-gradient-7)"/>
      <circle id="Elipse_4969" data-name="Elipse 4969" cx="2.583" cy="2.583" r="2.583" transform="translate(88.949)" fill="url(#linear-gradient-7)"/>
    </g>
    <g id="Grupo_86385" data-name="Grupo 86385" transform="translate(-859.086 1930.504)">
      <path id="Trazado_116163" data-name="Trazado 116163" d="M-733.415,2039.743l28.631-54.849h-5.866a1.281,1.281,0,0,1-.99-2.094l30.514-37.191a2.152,2.152,0,0,1,3.812,1.492l-2.145,36.368a3.634,3.634,0,0,1-4.041,3.4l-4.09-.468L-716,2047.916a4.522,4.522,0,0,1-4.107,2.627h-9.845Z" transform="translate(829.592 -1944.816)" fill="url(#linear-gradient-12)"/>
      <path id="Trazado_116164" data-name="Trazado 116164" d="M-698.172,1981.788a.278.278,0,0,1-.17-.059.279.279,0,0,1-.051-.392l25.2-32.741a1.03,1.03,0,0,1,1.229-.333,1.029,1.029,0,0,1,.651,1.094l-.444,3.925a.279.279,0,0,1-.309.246.278.278,0,0,1-.246-.309l.444-3.925a.478.478,0,0,0-.306-.513.479.479,0,0,0-.576.157l-25.2,32.74A.281.281,0,0,1-698.172,1981.788Z" transform="translate(821.533 -1945.592)" fill="#fff" opacity="0.63"/>
      <g id="Grupo_86383" data-name="Grupo 86383" transform="translate(108.926 49.248)">
        <path id="Trazado_116165" data-name="Trazado 116165" d="M-674.045,2008.873c-8.911,3.951-32.582,17.622-42.8,54.474,0,0,13.787.231,24.13-21.878,8.845-18.907,13.932-26.546,19.349-31.574A.621.621,0,0,0-674.045,2008.873Z" transform="translate(716.847 -2008.815)" fill="#9df4fb"/>
        <path id="Trazado_116166" data-name="Trazado 116166" d="M-714.706,2063.372l.048-.154c.031-.1.08-.254.145-.449.129-.393.326-.966.593-1.688s.606-1.594,1.006-2.59.886-2.1,1.426-3.311,1.163-2.494,1.84-3.848c.693-1.346,1.421-2.768,2.233-4.207q.3-.54.612-1.089l.641-1.094c.426-.736.881-1.467,1.336-2.206s.935-1.47,1.409-2.209c.489-.73.966-1.472,1.468-2.2s.993-1.458,1.52-2.162l.775-1.063c.259-.352.528-.7.79-1.043l.787-1.03.8-1c.522-.673,1.071-1.311,1.607-1.941s1.076-1.24,1.606-1.834,1.06-1.166,1.586-1.712c.263-.273.517-.547.777-.808l.774-.765.748-.74c.245-.241.5-.466.74-.693.492-.443.948-.883,1.407-1.274l1.3-1.113.3-.256.3-.237.571-.448,1-.788,1.972-1.405a.147.147,0,0,1,.2.034.147.147,0,0,1-.023.2l-.005,0-1.823,1.568-.933.855-.529.485-.279.256-.281.274-1.214,1.18c-.429.414-.853.877-1.309,1.344-.226.235-.464.469-.695.719l-.7.766-.726.791c-.243.27-.481.553-.727.835l-.746.858c-.256.285-.5.592-.75.892-.5.6-1.019,1.217-1.518,1.865l-.763.969c-.257.325-.5.662-.761.994l-.768,1.008-.754,1.034c-.251.347-.509.692-.756,1.045l-.743,1.065c-.5.709-.983,1.434-1.474,2.153s-.957,1.456-1.434,2.18-.928,1.463-1.377,2.194c-.894,1.464-1.771,2.907-2.589,4.323l-1.207,2.084c-.392.683-.764,1.357-1.13,2.011-.723,1.313-1.417,2.552-2.023,3.713-.628,1.15-1.179,2.219-1.673,3.163s-.912,1.775-1.263,2.456l-1.079,2.153h0a.147.147,0,0,1-.2.066A.147.147,0,0,1-714.706,2063.372Z" transform="translate(716.355 -2010.928)" fill="#fff" opacity="0.51"/>
      </g>
      <g id="Grupo_86384" data-name="Grupo 86384" transform="translate(109.175 81.889)">
        <path id="Trazado_116167" data-name="Trazado 116167" d="M-716.524,2073.874s3.708-14.538,23.988-16.492c13.534-1.3,17.835-4.614,19.1-6.071a.223.223,0,0,1,.39.178c-.421,2.745-2.7,11.226-14.993,16.179C-702.852,2073.639-710.272,2068.944-716.524,2073.874Z" transform="translate(716.524 -2051.232)" fill="#9df4fb"/>
        <path id="Trazado_116168" data-name="Trazado 116168" d="M-715.173,2072.863s.111-.124.331-.34.543-.534.977-.914.968-.832,1.6-1.324,1.374-1.02,2.2-1.57,1.751-1.1,2.758-1.635a33.176,33.176,0,0,1,3.257-1.515,28.615,28.615,0,0,1,3.67-1.192,26.934,26.934,0,0,1,3.942-.689c.335-.024.669-.064,1.006-.075l1.006-.037,1,.015c.334.008.666.04,1,.059l1.888.121c.639.063,1.219.024,1.812.037l.44,0,.219,0,.219-.015.865-.061.426-.03.211-.014c.07-.008.139-.02.208-.03l.817-.123a16.369,16.369,0,0,0,2.967-.724,2.9,2.9,0,0,0,.328-.125l.318-.129c.208-.089.419-.16.612-.258l.56-.288c.09-.047.182-.091.269-.14l.247-.156.476-.3c.146-.1.284-.21.419-.309a8.719,8.719,0,0,0,.707-.587c.2-.195.377-.368.52-.53s.263-.3.348-.425.155-.212.2-.276.059-.1.059-.1a.109.109,0,0,1,.147-.046.109.109,0,0,1,.052.132h0s-.015.044-.05.118a3.479,3.479,0,0,1-.162.321,7.176,7.176,0,0,1-.776,1.116,8.913,8.913,0,0,1-.671.7c-.129.12-.262.249-.406.377l-.469.365-.249.191c-.086.062-.178.116-.269.176l-.567.363c-.195.123-.409.22-.622.335s-.431.238-.666.33a17.189,17.189,0,0,1-3.094,1l-.86.177c-.073.014-.146.031-.219.043l-.222.028-.447.056-.91.113-.231.028-.235.011-.472.024c-.629.026-1.291.077-1.908.042l-.949-.026-.973-.033a22.6,22.6,0,0,0-3.756.115,28.244,28.244,0,0,0-3.713.667,34.274,34.274,0,0,0-3.514,1.071,48.08,48.08,0,0,0-5.991,2.678c-.858.446-1.621.9-2.3,1.292s-1.262.767-1.743,1.07-.85.555-1.1.726l-.385.264a.109.109,0,0,1-.152-.028A.11.11,0,0,1-715.173,2072.863Z" transform="translate(716.219 -2053.054)" fill="#fff" opacity="0.51"/>
      </g>
      <path id="Trazado_116169" data-name="Trazado 116169" d="M-764.175,2015.863l20.212,44.9a7.411,7.411,0,0,0,6.759,4.369h10.42a3.8,3.8,0,0,0,3.327-1.958l.371-.669h0a2.978,2.978,0,0,1-2.653-1.624l-26.931-52.767Z" transform="translate(836.681 -1959.405)" fill="url(#linear-gradient-13)"/>
      <path id="Trazado_116170" data-name="Trazado 116170" d="M-761.986,2011.881h0a4.421,4.421,0,0,0-6.419,1.021l-29.718,44.649a12.839,12.839,0,0,1-10.687,5.725h-4.182l-3.4-9.8s27.627-42.361,34.748-48.77c0,0,7.091-6.391,14.083-1.558a11.661,11.661,0,0,1,4.106,5.174Z" transform="translate(848.716 -1957.843)" fill="url(#linear-gradient-14)"/>
      <path id="Trazado_116171" data-name="Trazado 116171" d="M-858.4,2032.671a22.444,22.444,0,0,1,14.614-7.185s4.578,1.56,13.7,17.9,15.175,23.8,22.28,19.726l-.589.977a10.713,10.713,0,0,1-9.178,5.187H-821.5a13.443,13.443,0,0,1-10.913-5.591C-839.512,2053.818-854.036,2034.2-858.4,2032.671Z" transform="translate(858.397 -1963.409)" fill="url(#linear-gradient-15)"/>
      <path id="Trazado_116172" data-name="Trazado 116172" d="M-665.07,1962.024a.209.209,0,0,1-.031,0,.279.279,0,0,1-.246-.309l.2-1.776a.28.28,0,0,1,.309-.246.28.28,0,0,1,.246.309l-.2,1.776A.28.28,0,0,1-665.07,1962.024Z" transform="translate(813.904 -1948.244)" fill="#fff" opacity="0.63"/>
    </g>
    <g id="Grupo_86388" data-name="Grupo 86388" transform="translate(-809.897 1938.256)">
      <path id="Trazado_116173" data-name="Trazado 116173" d="M-764.24,1971.518s1.9.927,2.255,1.991c.281.854,2.387.964,2.595,2.644a1.928,1.928,0,0,0,1.613,1.694c2.151.33,5.466,1.447,6,5.181.4,2.85-1.048,3.931-2.573,4.305a2.161,2.161,0,0,0-1.638,2.5c.218,1.084-.106,2.339-1.985,3.33-4.211,2.222-8.416-5.264-8.416-5.264l-.862-13.071Z" transform="translate(788.203 -1958.723)" fill="url(#linear-gradient-16)"/>
      <path id="Trazado_116174" data-name="Trazado 116174" d="M-789.364,1962.561s5.418,14.771,14.651,19.387c0,0-3.073,5.014-4.676,5.318,0,0-9.863-12.623-10.869-22.966Z" transform="translate(793.504 -1956.659)" fill="url(#linear-gradient-17)"/>
      <path id="Trazado_116175" data-name="Trazado 116175" d="M-740.846,2077.769l.272,2.24a.924.924,0,0,0,.811.81,14.312,14.312,0,0,0,3,.047.792.792,0,0,0,.666-1.027,8.15,8.15,0,0,0-1.5-2.927h-2.485A.766.766,0,0,0-740.846,2077.769Z" transform="translate(782.117 -1983.014)" fill="url(#linear-gradient-18)"/>
      <path id="Trazado_116176" data-name="Trazado 116176" d="M-766.7,2043.925l-.419,2.467s1.4,14.228,1.654,19.918a4.46,4.46,0,0,1-.66,2.535l-2.442,3.966,6.207-3.663.124-.758-1.016-1.4,1.331-15.938a4.886,4.886,0,0,0-.556-2.7l-1.284-2.412Z" transform="translate(788.504 -1975.411)" fill="url(#linear-gradient-19)"/>
      <path id="Trazado_116177" data-name="Trazado 116177" d="M-769.252,2080.445h1.981a1.192,1.192,0,0,0,.947-.464c.618-.8,1.9-2.368,2.509-2.409.823-.055.719,2.873.719,2.873h.461l.585-3.638a2.153,2.153,0,0,0-1.13-2.251h0a3.048,3.048,0,0,1-1.209,2.009c-1.021.616-4.154,2.821-4.154,2.821a2.829,2.829,0,0,0-.806.022A.524.524,0,0,0-769.252,2080.445Z" transform="translate(788.784 -1982.471)" fill="url(#linear-gradient-20)"/>
      <path id="Trazado_116178" data-name="Trazado 116178" d="M-755.089,2045.141s8.229,15.608,9.537,19.172a34.288,34.288,0,0,1,1.784,6.818c.027.439.574.862,2.082.862a1.448,1.448,0,0,0,1.347-.614.881.881,0,0,0,.033-.852c-.476-.963-1.987-4.042-2.546-5.438-.667-1.667-2.1-9.221-2.892-11.848s-1.679-5.476-5.11-8.1C-750.855,2045.141-753.211,2042.834-755.089,2045.141Z" transform="translate(785.399 -1975.455)" fill="url(#linear-gradient-21)"/>
      <path id="Trazado_116179" data-name="Trazado 116179" d="M-765.311,2006.575c-2.122-8.994,3.254-14.082,3.254-14.082-3.393-3.256-9.574-4.739-9.574-4.739s-5.9,4.312-5.2,7.688c.41,1.978,4.146,11.85,4.146,11.85A8.208,8.208,0,0,0-765.311,2006.575Z" transform="translate(790.423 -1962.465)" fill="url(#linear-gradient-22)"/>
      <path id="Trazado_116180" data-name="Trazado 116180" d="M-759.474,2016.665c-.864-2.6-4.706-4.452-4.706-4.452a8.208,8.208,0,0,1-7.373.718,14.787,14.787,0,0,0-.24,5.714c.535,2.752,3.89,20.439,3.89,20.439,5.286,1.071,13.417-1.077,13.417-1.077C-757.854,2032.027-758.611,2019.267-759.474,2016.665Z" transform="translate(789.292 -1968.102)" fill="url(#linear-gradient-23)"/>
      <path id="Trazado_116181" data-name="Trazado 116181" d="M-766.045,1979.81l1.726,7.752c.165.683-.457.571-1.147.44-1.13-.212-2.588-.652-3.075-1.531a.856.856,0,0,1-.089-.292l-.741-5.375a.965.965,0,0,1,.566-1.014l1.431-.635A.965.965,0,0,1-766.045,1979.81Z" transform="translate(788.692 -1960.464)" fill="url(#linear-gradient-24)"/>
      <path id="Trazado_116182" data-name="Trazado 116182" d="M-758.442,1993.913s12.045,8.617,1.541,17.672a2.709,2.709,0,0,1-1.188.689,13.142,13.142,0,0,0-2.172,1.474.408.408,0,0,1-.6-.108h0a.56.56,0,0,1-.032-.535l1.491-3.154a1.15,1.15,0,0,1,1.494-.065h0a.567.567,0,0,0,.86-.195c.813-1.654,2.346-6.518-3.93-12.014a.68.68,0,0,1-.151-.826C-760.685,1996-759.677,1994.322-758.442,1993.913Z" transform="translate(786.808 -1963.885)" fill="url(#linear-gradient-25)"/>
      <g id="Grupo_86386" data-name="Grupo 86386" transform="translate(16.529 9.211)">
        <path id="Trazado_116183" data-name="Trazado 116183" d="M-768.9,1970.4a7.65,7.65,0,0,0-3.434,3.817c-1.39,2.953-.352,4.317.952,4.5a6.1,6.1,0,0,0,5.315-1.749C-764.008,1975.068-766.246,1969.381-768.9,1970.4Z" transform="translate(772.997 -1967.649)" fill="url(#linear-gradient-26)"/>
        <path id="Trazado_116184" data-name="Trazado 116184" d="M-766.879,1974.61s1.542-4.321-2.289-4.372l-.9.63s-1.406-2.4.9-3.539,5.007-.2,5.989,2.909,1.149,5.188-.484,6.676-2.307-.2-2.307-.2.89-1.391.528-2.135-1.2.154-1.2.154Z" transform="translate(772.42 -1966.861)" fill="url(#linear-gradient-27)"/>
        <path id="Trazado_116185" data-name="Trazado 116185" d="M-765.238,1977.093s.78-2.225,1.819-1.339-.845,2.056-1.583,2.435Z" transform="translate(771.209 -1968.862)" fill="url(#linear-gradient-28)"/>
      </g>
      <g id="Grupo_86387" data-name="Grupo 86387">
        <path id="Trazado_116186" data-name="Trazado 116186" d="M-790.856,1963.481c-.083.263.874.663,1.438-.412.02-.515.333-2.722.025-3.142a41.153,41.153,0,0,0-4.818-5.037.756.756,0,0,0-.095,1.05l1.541,1.607a7.46,7.46,0,0,0-.9,1.78,2.163,2.163,0,0,0,.215,1.59c.271.488.64,1.122.99,1.617A2.132,2.132,0,0,0-790.856,1963.481Z" transform="translate(794.477 -1954.891)" fill="url(#linear-gradient-29)"/>
        <path id="Trazado_116187" data-name="Trazado 116187" d="M-791.058,1963.439a15.045,15.045,0,0,0-.715-2.813.9.9,0,0,1-.171-.707.656.656,0,0,1,.369-.4l.085-.044,1.507,1.277.454,1.221-.269.1-.428-1.15-1.3-1.1a.321.321,0,0,0-.142.175.654.654,0,0,0,.139.479,15.816,15.816,0,0,1,.753,2.912Z" transform="translate(793.898 -1955.948)" fill="url(#linear-gradient-30)"/>
      </g>
    </g>
  </g>
</svg>
