<svg xmlns="http://www.w3.org/2000/svg" xmlns:xlink="http://www.w3.org/1999/xlink" width="312.368" height="313" viewBox="0 0 312.368 313">
  <defs>
    <linearGradient id="linear-gradient" x1="-56.528" y1="-10.122" x2="-55.537" y2="-10.955" gradientUnits="objectBoundingBox">
      <stop offset="0.004" stop-color="#2871e3"/>
      <stop offset="1" stop-color="#30a4f6"/>
    </linearGradient>
    <linearGradient id="linear-gradient-2" x1="-48.885" y1="-5.868" x2="-47.825" y2="-5.868" gradientUnits="objectBoundingBox">
      <stop offset="0" stop-color="#49bff9"/>
      <stop offset="0.996" stop-color="#2fccd7"/>
    </linearGradient>
    <linearGradient id="linear-gradient-3" x1="0.434" y1="1.819" x2="0.507" y2="0.645" gradientUnits="objectBoundingBox">
      <stop offset="0" stop-color="#2f498c"/>
      <stop offset="0.996" stop-color="#0a264f"/>
    </linearGradient>
    <linearGradient id="linear-gradient-4" x1="0.378" y1="0.48" x2="0.132" y2="0.522" gradientUnits="objectBoundingBox">
      <stop offset="0" stop-color="#2f498c"/>
      <stop offset="0.395" stop-color="#164774"/>
      <stop offset="0.996" stop-color="#0a264f"/>
    </linearGradient>
    <linearGradient id="linear-gradient-5" x1="0.788" y1="-0.179" x2="0.128" y2="1.287" xlink:href="#linear-gradient-3"/>
    <linearGradient id="linear-gradient-6" x1="0.71" y1="-0.032" x2="-0.102" y2="1.876" gradientUnits="objectBoundingBox">
      <stop offset="0" stop-color="#ffc444"/>
      <stop offset="0.996" stop-color="#f36f56"/>
    </linearGradient>
    <linearGradient id="linear-gradient-7" x1="0.021" y1="0.083" x2="1.17" y2="1.118" xlink:href="#linear-gradient-6"/>
    <linearGradient id="linear-gradient-8" x1="0.977" y1="-0.218" x2="-0.168" y2="1.557" xlink:href="#linear-gradient-6"/>
    <linearGradient id="linear-gradient-9" x1="-3.081" y1="-5.809" x2="2.557" y2="3.58" xlink:href="#linear-gradient-6"/>
    <linearGradient id="linear-gradient-10" x1="0.95" y1="2.752" x2="0.489" y2="0.442" gradientUnits="objectBoundingBox">
      <stop offset="0.004" stop-color="#318bd7"/>
      <stop offset="1" stop-color="#609cf9"/>
    </linearGradient>
    <linearGradient id="linear-gradient-11" x1="0.366" y1="-0.306" x2="0.633" y2="1.299" xlink:href="#linear-gradient-2"/>
    <linearGradient id="linear-gradient-12" x1="0.369" y1="-0.254" x2="0.63" y2="1.246" xlink:href="#linear-gradient-2"/>
    <linearGradient id="linear-gradient-13" x1="-688.327" y1="149.151" x2="-687.337" y2="149.151" gradientUnits="objectBoundingBox">
      <stop offset="0" stop-color="#444b8c"/>
      <stop offset="0.996" stop-color="#26264f"/>
    </linearGradient>
    <linearGradient id="linear-gradient-14" x1="-2244.648" y1="88.845" x2="-2243.342" y2="87.046" gradientUnits="objectBoundingBox">
      <stop offset="0" stop-color="#ffe6b3"/>
      <stop offset="0.996" stop-color="#f3bcac"/>
    </linearGradient>
    <linearGradient id="linear-gradient-15" x1="-645.745" y1="320.008" x2="-644.779" y2="320.008" xlink:href="#linear-gradient-13"/>
    <linearGradient id="linear-gradient-16" x1="-1742.551" y1="190.66" x2="-1741.491" y2="188.77" xlink:href="#linear-gradient-14"/>
    <linearGradient id="linear-gradient-17" x1="198.188" y1="-3.51" x2="197.261" y2="-4.173" gradientUnits="objectBoundingBox">
      <stop offset="0" stop-color="#3475f9"/>
      <stop offset="0.996" stop-color="#4798d7"/>
    </linearGradient>
    <linearGradient id="linear-gradient-18" x1="225.29" y1="-3.561" x2="224.234" y2="-4.234" xlink:href="#linear-gradient-17"/>
    <linearGradient id="linear-gradient-19" x1="216.471" y1="5.393" x2="215.378" y2="4.742" xlink:href="#linear-gradient-17"/>
    <linearGradient id="linear-gradient-20" x1="104.002" y1="0.15" x2="103.933" y2="1.095" gradientUnits="objectBoundingBox">
      <stop offset="0" stop-color="#ffe263"/>
      <stop offset="1" stop-color="#fbb44d"/>
    </linearGradient>
    <linearGradient id="linear-gradient-21" x1="108.115" y1="0.165" x2="108.048" y2="1.094" xlink:href="#linear-gradient-20"/>
    <linearGradient id="linear-gradient-22" x1="90.979" y1="0.111" x2="90.918" y2="1.392" xlink:href="#linear-gradient-20"/>
    <linearGradient id="linear-gradient-23" x1="197.355" y1="0.208" x2="196.792" y2="0.543" xlink:href="#linear-gradient-20"/>
    <linearGradient id="linear-gradient-24" x1="0.321" y1="0.814" x2="-0.236" y2="1.577" xlink:href="#linear-gradient-20"/>
    <linearGradient id="linear-gradient-25" x1="0.69" y1="0.396" x2="-0.036" y2="1.219" gradientUnits="objectBoundingBox">
      <stop offset="0" stop-color="#ffe6b3"/>
      <stop offset="0.206" stop-color="#fddebf"/>
      <stop offset="0.996" stop-color="#f3bcac"/>
    </linearGradient>
    <linearGradient id="linear-gradient-26" x1="-540.459" y1="63.395" x2="-541.144" y2="61.865" gradientUnits="objectBoundingBox">
      <stop offset="0" stop-color="#311944"/>
      <stop offset="1" stop-color="#6b3976"/>
    </linearGradient>
    <linearGradient id="linear-gradient-27" x1="0.27" y1="0.275" x2="1.753" y2="2.626" xlink:href="#linear-gradient-14"/>
    <linearGradient id="linear-gradient-28" x1="-575.42" y1="104.251" x2="-576.15" y2="101.714" xlink:href="#linear-gradient-26"/>
    <linearGradient id="linear-gradient-29" x1="0.141" y1="0.343" x2="2.438" y2="1.45" xlink:href="#linear-gradient-14"/>
  </defs>
  <g id="Grupo_86320" data-name="Grupo 86320" transform="translate(-1722.781 -1811.131)">
    <path id="Trazado_116036" data-name="Trazado 116036" d="M1798.351,1829.849c-10.392,15.036,1.793,39.411-13.626,50.72-15.01,11.007-33.449-7.035-47.593,2.44-20.985,14.055-17.152,78.372,13.528,118.333,9.226,12.018,16.935,16.694,20.349,30.286,7.332,29.184-18.436,46.545-13.532,60.979,11.041,32.5,180.842,59.772,248.973-37.9,31.821-45.616,36.582-111.489,8.152-161.52C1963.227,1802.779,1821.668,1796.112,1798.351,1829.849Z" transform="translate(0.673 0)" fill="#f4f7fa"/>
    <g id="Grupo_86303" data-name="Grupo 86303" transform="translate(1747.431 1821.32)">
      <path id="Trazado_116037" data-name="Trazado 116037" d="M1798.525,2035.4c6.056,1.313,16.254,3.523,27.063-.973,19.652-8.176,28.571-33.209,28.636-52.263.056-16.367-8.215-31.635-24.755-62.17-15.58-28.758-22.83-35.112-19.675-45.6,4.5-14.958,23.788-17.179,26.419-35.416.316-2.188,1.4-9.7-2.958-15.193-7.457-9.4-25.627-6.256-35.656-2.055-9.673,4.052-23.12,13.842-24.5,27.056-1,9.573,5.182,12.809,2.5,20.634-2.693,7.874-9.764,6.972-19.007,17.242-3.692,4.1-11.1,12.34-11.481,22.777-.485,13.5,11.232,18.459,8.37,28.309-2.067,7.117-8.863,6.855-12.822,14.223-5.213,9.7.208,21.971,4.856,32.123C1750.993,1996.04,1765.76,2028.294,1798.525,2035.4Z" transform="translate(-1738.532 -1817.641)" fill="url(#linear-gradient)"/>
      <path id="Trazado_116038" data-name="Trazado 116038" d="M1823.438,1824.225c3.022,6.692-21.51,13.775-29.931,37.444-9.058,25.467,6.06,54.6,13.047,68.063,11.921,22.969,21.445,25.3,25.746,45.729,1.7,8.083,5.247,24.922-4.869,39.3-.941,1.335-11.642,16.073-28.054,16.262-18.614.216-30.422-18.447-40.6-34.529-6.147-9.717-18.429-29.128-11.315-38.137,4.347-5.509,14.942-5.861,22.085-3.525,10.2,3.333,14.755,12.6,16.5,11.528,1.571-.969-.617-9.421-5.6-17.7-9.969-16.548-20.935-15.459-27.463-29.214-.792-1.667-6.869-14.968-.579-25.949,3.629-6.333,11.465-12.06,17.29-10.312,6.587,1.977,7.758,12.661,9.82,12.227,1.973-.415,2.1-10.437.782-20.359-1.939-14.58-5.388-16.8-4.554-24.8,1.274-12.2,10.67-20.127,12.038-21.247C1800.594,1818.523,1820.856,1818.505,1823.438,1824.225Z" transform="translate(-1734.7 -1816.08)" fill="#fff" opacity="0.16" style="mix-blend-mode: screen;isolation: isolate"/>
    </g>
    <g id="Grupo_86304" data-name="Grupo 86304" transform="translate(1722.781 1858.586)">
      <path id="Trazado_116039" data-name="Trazado 116039" d="M1823.55,2030.545c5.515-1.473,14.8-3.955,21.76-12.187,12.658-14.966,9.427-39.225,1.463-54.861-6.841-13.431-20.04-22.458-46.44-40.509-24.865-17-33.479-19.156-35.31-29.078-2.61-14.146,12.257-24.082,6.737-40.128-.662-1.925-2.936-8.539-8.816-11.2-10.063-4.559-23.625,5.661-30.073,13.321-6.218,7.39-13.113,21.068-8.684,32.474,3.208,8.263,9.636,8.313,10.736,15.849,1.106,7.583-5.066,9.82-8.315,22.123-1.3,4.914-3.9,14.78.181,23.489,5.282,11.26,16.968,10.393,18.769,19.667,1.3,6.7-4.374,9.344-4.518,17.046-.189,10.138,9.417,17.91,17.5,24.27C1768.053,2018.312,1793.722,2038.517,1823.55,2030.545Z" transform="translate(-1722.781 -1841.454)" fill="url(#linear-gradient-2)"/>
      <path id="Trazado_116040" data-name="Trazado 116040" d="M1756.627,1845.134c5.29,4.21-11.823,20.336-8.761,43.268,3.3,24.675,27.941,42.177,39.33,50.263,19.431,13.8,28.216,11.7,40.333,26.625,4.8,5.9,14.788,18.207,12.551,34.242-.208,1.49-2.772,18.066-16.135,25.128-15.159,8.011-32.685-2.309-47.787-11.2-9.126-5.373-27.355-16.105-25.319-26.478,1.244-6.343,9.775-11.09,16.609-12.182,9.753-1.559,17.389,4.116,18.365,2.5.878-1.455-4.471-7.459-12.035-12.138-15.13-9.36-23.655-3.854-34.79-12.373-1.351-1.033-11.925-9.371-11.395-21.013.307-6.715,4.316-14.7,9.822-15.724,6.229-1.153,11.684,7.107,13.191,5.883,1.441-1.171-2.67-9.434-7.927-17.005-7.725-11.127-11.484-11.493-14.165-18.4-4.092-10.531.269-20.977.919-22.47C1735.512,1850.078,1752.1,1841.536,1756.627,1845.134Z" transform="translate(-1720.519 -1839.839)" fill="#fff" opacity="0.16" style="mix-blend-mode: screen;isolation: isolate"/>
    </g>
    <g id="Grupo_86316" data-name="Grupo 86316" transform="translate(1739.137 1827.942)">
      <g id="Grupo_86305" data-name="Grupo 86305" transform="translate(102.283 240.791)">
        <path id="Trazado_116041" data-name="Trazado 116041" d="M1866.3,2013.147a11.472,11.472,0,0,1-7.608-8.637l-5.654-27.984-48.366,1.717-5.952,29.153c-.834,4.083,2.5,8.179,6.346,9.683L1825.3,2025a26.3,26.3,0,0,0,11.83,1.715l42.765-3.659a2.651,2.651,0,0,0,2.4-2.351c.146-1.26,1.022-2.676-.17-3.071Z" transform="translate(-1798.589 -1975.285)" fill="#97a6b7"/>
        <path id="Trazado_116042" data-name="Trazado 116042" d="M1866.186,2011.892a11.371,11.371,0,0,1-7.6-8.529l-5.648-27.63-47.188,1.7-5.947,28.787a8.423,8.423,0,0,0,5.212,9.559l20.213,7.817a26.568,26.568,0,0,0,11.819,1.693l42.721-3.612a2.636,2.636,0,0,0,.6-5.132Z" transform="translate(-1798 -1975.733)" fill="url(#linear-gradient-3)"/>
      </g>
      <g id="Grupo_86307" data-name="Grupo 86307" transform="translate(0 83.223)">
        <g id="Grupo_86306" data-name="Grupo 86306">
          <path id="Trazado_116043" data-name="Trazado 116043" d="M1742.768,2052.458c-5.246.313-9.535-3.089-9.535-7.586V1882.8c0-4.5,4.29-7.969,9.535-7.742l242.558,10.51a7.333,7.333,0,0,1,6.969,7.238v137.837a7.482,7.482,0,0,1-6.969,7.352Z" transform="translate(-1733.232 -1875.05)" fill="url(#linear-gradient-4)"/>
          <path id="Trazado_116044" data-name="Trazado 116044" d="M1744.161,2052.458c-5.246.313-9.536-3.089-9.536-7.586V1882.8c0-4.5,4.29-7.969,9.536-7.742l242.558,10.51a7.333,7.333,0,0,1,6.969,7.238v137.837a7.482,7.482,0,0,1-6.969,7.352Z" transform="translate(-1732.445 -1875.05)" fill="url(#linear-gradient-5)"/>
          <path id="Trazado_116045" data-name="Trazado 116045" d="M1985.112,1887.45l-242.558-9.979c-2.8-.116-5.085,1.737-5.085,4.138v161.652c0,2.4,2.28,4.218,5.085,4.057l242.558-13.929a3.993,3.993,0,0,0,3.732-3.93V1891.319A3.913,3.913,0,0,0,1985.112,1887.45Z" transform="translate(-1730.838 -1873.685)" fill="#d8dee8" opacity="0.3" style="mix-blend-mode: multiply;isolation: isolate"/>
          <path id="Trazado_116046" data-name="Trazado 116046" d="M1741.433,2032.594a1.751,1.751,0,0,1-1.981-1.595V1880.776a1.773,1.773,0,0,1,1.981-1.617l242.558,9.608a1.528,1.528,0,0,1,1.458,1.51v128.8a1.549,1.549,0,0,1-1.458,1.526Z" transform="translate(-1729.718 -1872.73)" fill="url(#linear-gradient-6)"/>
        </g>
        <path id="Trazado_116047" data-name="Trazado 116047" d="M1961.4,2027.968c-20.407-12.623-6.154-48.513-29.07-66.547-23.106-18.179-55.615,4.117-71.8-14.709-12.051-14.019,2.05-30.946-9.456-44.13-18.044-20.675-64.237,7.759-85.458-12.609-3.014-2.892-6.053-7.279-7.784-14.318l-13.667-.593c-5.246-.227-9.536,3.246-9.536,7.742v162.07c0,4.5,4.29,7.9,9.536,7.586L1986.718,2038a7.482,7.482,0,0,0,6.969-7.352V2028.2C1977.58,2033.663,1967.735,2031.888,1961.4,2027.968Z" transform="translate(-1732.445 -1875.05)" fill="#fff" opacity="0.6" style="mix-blend-mode: soft-light;isolation: isolate"/>
      </g>
      <g id="Grupo_86315" data-name="Grupo 86315" transform="translate(43.513)">
        <g id="Grupo_86308" data-name="Grupo 86308" transform="translate(0 29.768)">
          <path id="Trazado_116048" data-name="Trazado 116048" d="M1947.74,2033.946V1849.839l-178.878-8.945v203.054a9.333,9.333,0,0,1-7.826,9.21h0l177.092-8.946A10.29,10.29,0,0,0,1947.74,2033.946Z" transform="translate(-1761.036 -1840.894)" fill="#fff"/>
        </g>
        <g id="Grupo_86314" data-name="Grupo 86314" transform="translate(31.292)">
          <g id="Grupo_86312" data-name="Grupo 86312" transform="translate(25.88)">
            <g id="Grupo_86310" data-name="Grupo 86310">
              <path id="Trazado_116049" data-name="Trazado 116049" d="M1878.832,1825l-75.68-3.124a5.194,5.194,0,0,0-5.584,5.085v74.367a5.511,5.511,0,0,0,5.584,5.363l75.68.651a5.134,5.134,0,0,0,5.241-5.094v-71.893a5.455,5.455,0,0,0-5.241-5.355Z" transform="translate(-1797.568 -1821.873)" fill="url(#linear-gradient-7)"/>
              <path id="Trazado_116050" data-name="Trazado 116050" d="M1802.246,1903.453a3.043,3.043,0,0,1-3.075-2.957v-74.3a2.866,2.866,0,0,1,3.075-2.8l75.68,3.055a3.011,3.011,0,0,1,2.892,2.952v71.96a2.834,2.834,0,0,1-2.892,2.808Z" transform="translate(-1796.662 -1821.013)" fill="#fff" opacity="0.7" style="mix-blend-mode: soft-light;isolation: isolate"/>
              <g id="Grupo_86309" data-name="Grupo 86309" opacity="0.3" style="mix-blend-mode: multiply;isolation: isolate">
                <path id="Trazado_116051" data-name="Trazado 116051" d="M1829.632,1877.548c-4.938-11.783,10.155-20.882,6.842-36.527-1.587-7.5-6.761-13.55-12.75-18.295l-20.572-.848a5.194,5.194,0,0,0-5.584,5.085v74.367a5.511,5.511,0,0,0,5.584,5.363l72.129.621a37.635,37.635,0,0,0-5.609-6.927C1855.049,1886.209,1834.927,1890.184,1829.632,1877.548Z" transform="translate(-1797.568 -1821.873)" fill="url(#linear-gradient-8)"/>
              </g>
            </g>
            <g id="Grupo_86311" data-name="Grupo 86311" transform="translate(24.981 14.561)">
              <path id="Trazado_116052" data-name="Trazado 116052" d="M1826.191,1870.341a24.136,24.136,0,0,1,1.327-8.909,13.516,13.516,0,0,1,4.294-5.567,26.9,26.9,0,0,0,4.5-4.266,6.834,6.834,0,0,0,1.535-4.34q0-5.831-5.194-6a4.757,4.757,0,0,0-3.891,1.581,6.9,6.9,0,0,0-1.568,4.565L1813.53,1847q.082-7.8,5.111-11.968,5.014-4.16,14.013-3.831,8.909.322,13.761,4.462t4.844,11.423a12.586,12.586,0,0,1-1.3,5.764,18.988,18.988,0,0,1-4.194,5.235l-4.566,4.008a10.093,10.093,0,0,0-2.708,3.661,14.174,14.174,0,0,0-.837,4.826Zm-1.651,11.766a5.822,5.822,0,0,1,2.154-4.678,7.824,7.824,0,0,1,5.36-1.74,8.037,8.037,0,0,1,5.337,1.934,6.017,6.017,0,0,1,2.133,4.728,5.815,5.815,0,0,1-2.133,4.658,7.813,7.813,0,0,1-5.337,1.762,8.055,8.055,0,0,1-5.36-1.916A6.026,6.026,0,0,1,1824.54,1882.107Z" transform="translate(-1813.53 -1831.177)" fill="#fff"/>
            </g>
            <path id="Trazado_116053" data-name="Trazado 116053" d="M1825.981,1883.941l-5.755-7.7,16.993.146-5.7,7.59A3.487,3.487,0,0,1,1825.981,1883.941Z" transform="translate(-1784.766 -1791.158)" fill="url(#linear-gradient-9)"/>
          </g>
          <g id="Grupo_86313" data-name="Grupo 86313" transform="translate(0 102.096)">
            <path id="Trazado_116054" data-name="Trazado 116054" d="M1917.14,1897.566l-136.109.3V1887.11l136.109.261Z" transform="translate(-1781.031 -1887.11)" fill="#d8dee8"/>
            <path id="Trazado_116055" data-name="Trazado 116055" d="M1844.379,1918.214l-60.227.759a2.988,2.988,0,0,1-3.121-2.9v-14.645a3.051,3.051,0,0,1,3.121-2.953l60.227-.289a2.9,2.9,0,0,1,2.97,2.85v14.276A2.963,2.963,0,0,1,1844.379,1918.214Z" transform="translate(-1781.031 -1880.852)" fill="url(#linear-gradient-10)"/>
            <path id="Trazado_116056" data-name="Trazado 116056" d="M1887.829,1917.452l-56.949.719a2.86,2.86,0,0,1-2.948-2.819v-14.237a2.921,2.921,0,0,1,2.948-2.87l56.949-.272a2.782,2.782,0,0,1,2.812,2.772v13.886A2.842,2.842,0,0,1,1887.829,1917.452Z" transform="translate(-1754.532 -1880.972)" fill="#d8dee8"/>
            <path id="Trazado_116057" data-name="Trazado 116057" d="M1917.14,1924.764l-136.109,2.63v-10.753l136.109-2.073Z" transform="translate(-1781.031 -1871.596)" fill="#d8dee8"/>
            <path id="Trazado_116058" data-name="Trazado 116058" d="M1844.379,1946.3l-60.227,1.792a2.927,2.927,0,0,1-3.121-2.845V1930.6a3.115,3.115,0,0,1,3.121-3.007l60.227-1.322a2.842,2.842,0,0,1,2.97,2.8v14.278A3.025,3.025,0,0,1,1844.379,1946.3Z" transform="translate(-1781.031 -1864.982)" fill="#d8dee8"/>
            <path id="Trazado_116059" data-name="Trazado 116059" d="M1917.14,1952.056l-136.109,4.965v-10.753l136.109-4.407Z" transform="translate(-1781.031 -1856.176)" fill="#d8dee8"/>
            <path id="Trazado_116060" data-name="Trazado 116060" d="M1844.379,1974.392l-60.227,2.825a2.868,2.868,0,0,1-3.121-2.79v-14.647a3.182,3.182,0,0,1,3.121-3.059l60.227-2.354a2.784,2.784,0,0,1,2.97,2.747v14.276A3.089,3.089,0,0,1,1844.379,1974.392Z" transform="translate(-1781.031 -1849.111)" fill="#d8dee8"/>
            <path id="Trazado_116061" data-name="Trazado 116061" d="M1887.829,1944.775l-56.949,1.695a2.8,2.8,0,0,1-2.948-2.768v-14.237a2.982,2.982,0,0,1,2.948-2.92l56.949-1.25a2.727,2.727,0,0,1,2.812,2.725v13.886A2.9,2.9,0,0,1,1887.829,1944.775Z" transform="translate(-1754.532 -1865.536)" fill="url(#linear-gradient-11)"/>
            <path id="Trazado_116062" data-name="Trazado 116062" d="M1887.829,1972.1l-56.949,2.671a2.747,2.747,0,0,1-2.948-2.718v-14.237a3.044,3.044,0,0,1,2.948-2.97l56.949-2.227a2.671,2.671,0,0,1,2.812,2.676v13.886A2.965,2.965,0,0,1,1887.829,1972.1Z" transform="translate(-1754.532 -1850.099)" fill="url(#linear-gradient-12)"/>
          </g>
        </g>
      </g>
    </g>
    <g id="Grupo_86319" data-name="Grupo 86319" transform="translate(1927.747 1893.488)">
      <path id="Trazado_116063" data-name="Trazado 116063" d="M1897.608,2007.978c.653.6.695,2,.721,2.922a2.248,2.248,0,0,1-.036.756c-.4,1.031-2.44,1.017-5.653,1.149-5.08.208-6.606.513-6.955-.261-.327-.726.638-1.825.748-1.945a4.642,4.642,0,0,1,2.577-1.2c2.429-.639,4.064-.969,4.559-1.071C1896.661,2007.7,1897.179,2007.583,1897.608,2007.978Z" transform="translate(-1835.744 -1782.399)" fill="url(#linear-gradient-13)"/>
      <path id="Trazado_116064" data-name="Trazado 116064" d="M1891.075,2004.659l-.2,5.781a3.127,3.127,0,0,0,3.233.225l1-5.725Z" transform="translate(-1832.774 -1784.145)" fill="url(#linear-gradient-14)"/>
      <path id="Trazado_116065" data-name="Trazado 116065" d="M1870.639,2007.647a2.846,2.846,0,0,1,.477,3.4c-.662.85-1.754.3-4.754.546-3.215.269-4.014,1.073-6.235.587-.9-.2-2.49-.706-2.493-1.338,0-.446.779-.717,3.386-1.748,3.7-1.463,3.679-1.532,4.473-1.707C1867.486,2006.945,1869.486,2006.5,1870.639,2007.647Z" transform="translate(-1851.555 -1782.867)" fill="url(#linear-gradient-15)"/>
      <path id="Trazado_116066" data-name="Trazado 116066" d="M1864.925,2004.1l-1.327,5.457a3.128,3.128,0,0,0,3.207.471l2.119-5.341Z" transform="translate(-1848.186 -1784.461)" fill="url(#linear-gradient-16)"/>
      <path id="Trazado_116067" data-name="Trazado 116067" d="M1873.042,1928.438a504.05,504.05,0,0,1-9.534,120.057l6.269,1.332c4.967-5.152,11.151-13.177,13.753-24.189,1.617-6.836.773-10.259,1.584-18.6,1.291-13.285,4.961-20.406,8.57-31.256a175.155,175.155,0,0,0,8.305-42.864Z" transform="translate(-1848.236 -1827.21)" fill="url(#linear-gradient-17)"/>
      <path id="Trazado_116068" data-name="Trazado 116068" d="M1874.242,2012.178c2.3-9.113,6.734-11.523,6.892-20.126.111-6.084-2.075-6.582-1.931-12.406.221-8.834,5.4-13.467,8-19.022,2.747-5.869,3.8-15.3-3.6-30.976l16.706,2.586A175.155,175.155,0,0,1,1892,1975.1c-3.609,10.85-7.279,17.971-8.57,31.256-.811,8.343.033,11.765-1.584,18.6-2.6,11.011-8.786,19.037-13.753,24.189l-1.595-.338c5.37-6.409,7.265-12.132,7.747-16.777C1875.026,2024.473,1871.921,2021.368,1874.242,2012.178Z" transform="translate(-1846.549 -1826.526)" opacity="0.3" fill="url(#linear-gradient-18)" style="mix-blend-mode: multiply;isolation: isolate"/>
      <path id="Trazado_116069" data-name="Trazado 116069" d="M1882.947,1927.844q3.732,34.339,6.831,69.984,2.314,26.743,4.135,52.825l6.355.443a73.652,73.652,0,0,0,5.678-17.345c1.765-9.132.959-14.454,1.446-23.846.546-10.534,2.031-12.9,4.171-26.267,4.343-27.125,6.515-40.687-.373-48.684C1908.954,1932.359,1902.037,1925.916,1882.947,1927.844Z" transform="translate(-1837.253 -1827.746)" fill="url(#linear-gradient-19)"/>
      <path id="Trazado_116070" data-name="Trazado 116070" d="M1931.222,1971.01c-4.764,4.884-13.451,1.955-29.793,1.064a163.876,163.876,0,0,0-29.508,1.05c-1-5.406-2.225-12.938-3.122-21.976-3.272-32.927-5.385-54.2,5.778-65.626,16.217-16.594,52.473-4.241,56.512-2.814-5.135,31.07-2.629,52.87.844,67.376C1933.352,1956.017,1936.18,1965.928,1931.222,1971.01Z" transform="translate(-1846.724 -1856.301)" fill="url(#linear-gradient-20)"/>
      <path id="Trazado_116071" data-name="Trazado 116071" d="M1930.278,1968.931c-4.764,4.884-13.451,1.955-29.793,1.064a163.876,163.876,0,0,0-29.508,1.05q-1.561-10.989-3.122-21.976c1.693-8.654,4.254-20.994,7.823-35.793,4.512-18.7,6.767-25.286,8.98-25.2,4.912.188,5.759,33.083,12.524,33.566,4.944.354,7.1-17.018,18.516-19.489,5.326-1.154,8.395,1.819,11.766-.229,4.74-2.88,4.174-12.652,2.682-21.3-5.136,31.07-2.631,52.87.842,67.376C1932.408,1953.938,1935.236,1963.849,1930.278,1968.931Z" transform="translate(-1845.78 -1854.222)" opacity="0.3" fill="url(#linear-gradient-21)" style="mix-blend-mode: multiply;isolation: isolate"/>
      <path id="Trazado_116072" data-name="Trazado 116072" d="M1927.235,1880.629c2.071,1.066,18.533,9.9,22.267,29.455,2.521,13.2-1.1,29.5-11.468,37.006-15.094,10.928-45.958,4.285-65.029-24.356q.237-2.955.472-5.911c30.923,15.093,41.236,14.04,44.811,10.05,2.712-3.028,1.226-7.392,1.773-17.026A83.583,83.583,0,0,1,1927.235,1880.629Z" transform="translate(-1842.871 -1854.222)" fill="url(#linear-gradient-22)"/>
      <path id="Trazado_116073" data-name="Trazado 116073" d="M1888.975,1879.129a65.928,65.928,0,0,0-23.858,20.176c-3.92,5.452-16,22.256-9.46,34.7.377.719,4.128,7.637,9.9,7.889,10.365.452,18.766-20.965,21.636-31.37A76.08,76.08,0,0,0,1888.975,1879.129Z" transform="translate(-1853.75 -1855.069)" fill="url(#linear-gradient-23)"/>
      <path id="Trazado_116074" data-name="Trazado 116074" d="M1892.81,1883.115c-.64,4.607-1.742,11.476-3.65,19.707-4.537,19.567-7.47,31.486-16.792,35.947-3.657,1.75-9.4,2.876-12.26.277-6.151-5.581,4.214-25.4,4.729-26.365,2.479-4.654,5.981-9,12.888-17.5,4.731-5.823,8.791-10.512,11.614-13.7Z" transform="translate(-1851.256 -1853.743)" fill="url(#linear-gradient-24)"/>
      <g id="Grupo_86318" data-name="Grupo 86318" transform="translate(39.637)">
        <path id="Trazado_116075" data-name="Trazado 116075" d="M1891.153,1868.144a43.724,43.724,0,0,0,1.249,8.7c.576,2.3.934,2.887,1.376,3.354.665.7,1.646,1.266,7.079,2.31,2.955.567,3.329.528,3.408.814.39,1.394-7.307,6.633-15.586,5.911-5.068-.441-9.8-3.066-9.6-4.587s5.268-.987,6.618-3.811c.941-1.963-.372-4.61-1.872-6.78C1885.033,1871.476,1889.951,1870.72,1891.153,1868.144Z" transform="translate(-1879.077 -1861.276)" fill="url(#linear-gradient-25)"/>
        <g id="Grupo_86317" data-name="Grupo 86317" transform="translate(3.33)">
          <path id="Trazado_116076" data-name="Trazado 116076" d="M1882.7,1870.628a5.3,5.3,0,0,1,1.451-5.9,5.776,5.776,0,0,1,4.449-.876c3.219.351,6.881,2.561,7.6,5.761.427,1.9-2.146,5.051-2.568,5.628-.478.651-1.1.77-1.75,1.2-.9.593-2.313,1.538-4.629,3.132a13.274,13.274,0,0,0-.23-2.291,11.69,11.69,0,0,0-.92-2.841C1884.927,1872.07,1883.471,1872.337,1882.7,1870.628Z" transform="translate(-1880.566 -1863.755)" fill="url(#linear-gradient-26)"/>
          <path id="Trazado_116077" data-name="Trazado 116077" d="M1890.7,1876.474a7.188,7.188,0,0,1-6.877,1.715c-3.623-1.075-2.286-9.443.458-10.659a4.763,4.763,0,0,1,3.736.357c.706.382.889.753,2.055,1.355,1.074.556,1.426.5,1.7.872.349.46.462,1.423-.806,3.668a2.049,2.049,0,0,1,2.3-.214,1.279,1.279,0,0,1,.382.588C1893.952,1875.215,1892.817,1876.222,1890.7,1876.474Z" transform="translate(-1880.971 -1861.756)" fill="url(#linear-gradient-27)"/>
          <path id="Trazado_116078" data-name="Trazado 116078" d="M1892.289,1868.808c-.208.092.183.876.011,1.822a4.612,4.612,0,0,1-4.588,3.357c-1.135-.143-1.286-.881-3.077-1.491a8.672,8.672,0,0,0-2.711-.454,4.534,4.534,0,0,0,.183,5.2c1.21,1.319,3.178,1.133,4,1.056a5.4,5.4,0,0,0,3.515-1.526c1.252-1.366.588-2.512,1.856-3.34a8.8,8.8,0,0,0,2.269-1.382,5.233,5.233,0,0,0,.531-.614C1893.559,1870.213,1892.589,1868.675,1892.289,1868.808Z" transform="translate(-1881.205 -1860.905)" fill="url(#linear-gradient-28)"/>
          <path id="Trazado_116079" data-name="Trazado 116079" d="M1882.524,1871.559a4.581,4.581,0,0,0,2.089.831c.069.011.138.047.138.083a1.729,1.729,0,0,1-1.77.11c-.539-.294-.864-.941-.755-1.061C1882.274,1871.47,1882.4,1871.508,1882.524,1871.559Z" transform="translate(-1880.639 -1859.381)" fill="#fff"/>
        </g>
      </g>
      <path id="Trazado_116080" data-name="Trazado 116080" d="M1881.959,1872.876l-2.489,5.111s-.3,5.64-1.386,8.348l1.938.914s5.786-4,1.355-8.552C1881.377,1878.7,1883.14,1873.263,1881.959,1872.876Z" transform="translate(-1840.001 -1858.602)" fill="url(#linear-gradient-29)"/>
    </g>
  </g>
</svg>
