<svg xmlns="http://www.w3.org/2000/svg" width="95.014" height="117" viewBox="0 0 95.014 117">
  <g id="Grupo_89457" data-name="Grupo 89457" transform="translate(-571.322 -21.494)">
    <g id="_4" data-name="4" transform="translate(571.322 26.455)">
      <g id="_10" data-name="10">
        <g id="Grupo_89444" data-name="Grupo 89444">
          <path id="Trazado_116396" data-name="Trazado 116396" d="M654.222,25.6l-1.265,67.107-2.881,36.829-76.118-.235.123-40,7.138-65.338,54,.844Z" transform="translate(-568.682 -23.973)" fill="#cfd8dc"/>
          <rect id="Rectángulo_15689" data-name="Rectángulo 15689" width="102.917" height="79.949" transform="translate(2.268 106.181) rotate(-89.824)" fill="#fff"/>
          <path id="Trazado_116397" data-name="Trazado 116397" d="M657.987,122.558l.086-27.795a10.759,10.759,0,0,0-6.545-9.935l.178-57.918-77.576-.24a3.129,3.129,0,0,0-2.144.847l81.767,105.429C657.072,131.091,657.975,126.749,657.987,122.558Z" transform="translate(-570.657 -21.271)" fill="#f8d74b"/>
          <path id="Trazado_116398" data-name="Trazado 116398" d="M654.424,132.515a5.4,5.4,0,0,1-.643.368l-82.46-.254.318-103.242a3.113,3.113,0,0,1,1.019-2.292l2.166,2.794Z" transform="translate(-571.322 -20.845)" fill="#f4cd25"/>
        </g>
      </g>
    </g>
    <g id="_14" data-name="14" transform="translate(577.318 21.494)">
      <path id="Trazado_116399" data-name="Trazado 116399" d="M626.419,39.133l-.458-5.084-3.829-.3c-.286-.825,1.187-4.1.723-4.878l.354-.646-3.619-3.6L616.5,26.83a12.88,12.88,0,0,0-2.448-1.137l-.312-3.765-5.086-.434-.943,3.649a13.14,13.14,0,0,0-2.634.713l-2.638-2.66-.12.084-4.055,2.854,1.617,3.391a13.283,13.283,0,0,0-1.555,2.248l-3.733-.34-1.307,4.932,3.441,1.569a13.037,13.037,0,0,0,.258,2.7l-3.106,2.152,2.17,4.619,3.685-1.019a12.886,12.886,0,0,0,1.9,1.869l-1,3.683,4.63,2.148,2.188-3.18a13.232,13.232,0,0,0,2.624.214l1.613,3.493,4.926-1.331-.188-1.967-.184-1.891c.366-.21.731-.438,1.081-.683.37-.264.722-.538,1.059-.829l3.492,1.647,2.918-4.187-2.762-2.716a12.948,12.948,0,0,0,.673-2.536ZM614.474,44.7a8.6,8.6,0,0,1-1.069.624,8.134,8.134,0,0,1-8.3-13.938,8.507,8.507,0,0,1,.995-.586,8.134,8.134,0,0,1,8.372,13.9Z" transform="translate(-555.326 -21.494)" fill="#184f78"/>
      <path id="_7" data-name="7" d="M630.15,43.75l-.406-4.513-3.4-.266a11.338,11.338,0,0,0-1-2.134l1.955-2.768-3.21-3.2-2.746,1.957a11.747,11.747,0,0,0-2.172-1.009l-.278-3.339-4.513-.384-.835,3.236a11.693,11.693,0,0,0-2.338.632l-2.342-2.362-.106.076-3.6,2.532,1.435,3.008a11.742,11.742,0,0,0-1.379,2l-3.312-.3-1.161,4.377,3.056,1.391a11.361,11.361,0,0,0,.226,2.394l-2.754,1.909,1.923,4.1,3.268-.9a11.564,11.564,0,0,0,1.685,1.659l-.891,3.268,4.109,1.905,1.939-2.822a11.952,11.952,0,0,0,2.33.19l1.433,3.1,4.371-1.183-.168-1.745-.164-1.679c.326-.186.646-.386.959-.6.328-.234.64-.478.939-.737l3.1,1.463L628.7,49.28l-2.45-2.408a11.586,11.586,0,0,0,.6-2.25Zm-10.6,4.942a7.427,7.427,0,0,1-.947.552,7.162,7.162,0,1,1,.947-.552Z" transform="translate(-547.85 -14.88)" fill="#f62f48"/>
      <g id="Grupo_89448" data-name="Grupo 89448" transform="translate(0 20.325)">
        <g id="Grupo_89445" data-name="Grupo 89445">
          <path id="Trazado_116400" data-name="Trazado 116400" d="M578.433,31.726h2.161v13.7h-3.05V33.89a4.123,4.123,0,0,1-1.421.494,9.5,9.5,0,0,1-1.805.174V33.439a8.237,8.237,0,0,0,2.392-.536A4.076,4.076,0,0,0,578.433,31.726Z" transform="translate(-574.318 -31.572)" fill="#78909c"/>
          <path id="Trazado_116401" data-name="Trazado 116401" d="M579.489,35.268a3.326,3.326,0,0,1,1.089-2.722q1.09-.895,4.147-.9t4.167.893A3.294,3.294,0,0,1,590,35.268v6.543a3.708,3.708,0,0,1-1.073,2.874q-1.075.988-4.191.985t-4.183-.975a3.722,3.722,0,0,1-1.067-2.884Zm7.464-.086q0-1.993-1.613-2.14-.252-.024-.727-.024a4.19,4.19,0,0,0-.909.094,1.4,1.4,0,0,0-.8.552,2.45,2.45,0,0,0-.364,1.507v6.739c0,1.237.292,1.971.875,2.21a2.73,2.73,0,0,0,1.073.188,8.966,8.966,0,0,0,.9-.032,1.732,1.732,0,0,0,.606-.156q.964-.387.963-2.216V35.182Z" transform="translate(-569.139 -31.649)" fill="#78909c"/>
          <path id="Trazado_116402" data-name="Trazado 116402" d="M586.259,35.268a3.326,3.326,0,0,1,1.089-2.722q1.09-.895,4.147-.9t4.167.893a3.294,3.294,0,0,1,1.111,2.726v6.543a3.708,3.708,0,0,1-1.073,2.874q-1.075.988-4.191.985t-4.185-.975a3.728,3.728,0,0,1-1.065-2.884Zm7.464-.086q0-1.993-1.613-2.14-.252-.024-.727-.024a4.219,4.219,0,0,0-.911.094,1.4,1.4,0,0,0-.8.552,2.45,2.45,0,0,0-.364,1.507v6.739c0,1.237.292,1.971.875,2.21a2.73,2.73,0,0,0,1.073.188c.418,0,.719-.012.9-.032a1.743,1.743,0,0,0,.607-.156q.964-.387.963-2.216V35.182Z" transform="translate(-562.359 -31.649)" fill="#78909c"/>
          <path id="Trazado_116403" data-name="Trazado 116403" d="M596.745,31.726h2.164v13.7h-3.05V33.89a4.15,4.15,0,0,1-1.423.494,9.489,9.489,0,0,1-1.805.174V33.439a8.208,8.208,0,0,0,2.39-.536A4.054,4.054,0,0,0,596.745,31.726Z" transform="translate(-555.979 -31.572)" fill="#78909c"/>
        </g>
        <g id="Grupo_89446" data-name="Grupo 89446" transform="translate(2.254 18.854)">
          <path id="Trazado_116404" data-name="Trazado 116404" d="M575.444,44.688a3.318,3.318,0,0,1,1.089-2.718q1.087-.9,4.145-.9t4.169.9a3.288,3.288,0,0,1,1.109,2.722v6.545a3.7,3.7,0,0,1-1.073,2.874q-1.075.985-4.191.985t-4.183-.977a3.716,3.716,0,0,1-1.065-2.882Zm7.462-.086q0-1.99-1.611-2.14c-.17-.014-.412-.022-.727-.022a4.357,4.357,0,0,0-.913.092,1.418,1.418,0,0,0-.8.554,2.448,2.448,0,0,0-.362,1.509v6.737q0,1.852.873,2.212a2.785,2.785,0,0,0,1.075.186,8.417,8.417,0,0,0,.895-.032,1.827,1.827,0,0,0,.608-.154q.961-.39.961-2.22V44.6Z" transform="translate(-575.444 -41.069)" fill="#78909c"/>
          <path id="Trazado_116405" data-name="Trazado 116405" d="M582.213,44.688A3.319,3.319,0,0,1,583.3,41.97q1.087-.9,4.145-.9t4.169.9a3.288,3.288,0,0,1,1.109,2.722v6.545a3.71,3.71,0,0,1-1.073,2.874q-1.075.985-4.191.985t-4.183-.977a3.717,3.717,0,0,1-1.067-2.882Zm7.464-.086q0-1.99-1.613-2.14c-.168-.014-.41-.022-.727-.022a4.352,4.352,0,0,0-.911.092,1.411,1.411,0,0,0-.8.554,2.445,2.445,0,0,0-.364,1.509v6.737q0,1.852.875,2.212a2.779,2.779,0,0,0,1.075.186,8.392,8.392,0,0,0,.895-.032,1.837,1.837,0,0,0,.608-.154q.961-.39.961-2.22V44.6Z" transform="translate(-568.665 -41.069)" fill="#78909c"/>
          <path id="Trazado_116406" data-name="Trazado 116406" d="M597.473,41.147h2.162v13.7h-3.05V43.311a4.137,4.137,0,0,1-1.421.494,9.705,9.705,0,0,1-1.807.174V42.858a8.172,8.172,0,0,0,2.392-.536A4.06,4.06,0,0,0,597.473,41.147Z" transform="translate(-557.505 -40.991)" fill="#78909c"/>
          <path id="Trazado_116407" data-name="Trazado 116407" d="M598.527,44.688a3.318,3.318,0,0,1,1.089-2.718q1.087-.9,4.147-.9t4.167.9a3.283,3.283,0,0,1,1.111,2.722v6.545a3.71,3.71,0,0,1-1.073,2.874q-1.075.985-4.191.985t-4.183-.977a3.71,3.71,0,0,1-1.067-2.882Zm7.464-.086q0-1.99-1.613-2.14c-.168-.014-.41-.022-.727-.022a4.351,4.351,0,0,0-.911.092,1.415,1.415,0,0,0-.8.554,2.461,2.461,0,0,0-.362,1.509v6.737q0,1.852.873,2.212a2.786,2.786,0,0,0,1.075.186,8.435,8.435,0,0,0,.9-.032,1.829,1.829,0,0,0,.607-.154q.964-.39.963-2.22V44.6Z" transform="translate(-552.326 -41.069)" fill="#78909c"/>
          <path id="Trazado_116408" data-name="Trazado 116408" d="M609.678,41.147h2.162v13.7h-3.05V43.311a4.156,4.156,0,0,1-1.421.494,9.691,9.691,0,0,1-1.807.174V42.858a8.156,8.156,0,0,0,2.392-.536A4.061,4.061,0,0,0,609.678,41.147Z" transform="translate(-545.282 -40.991)" fill="#78909c"/>
        </g>
        <g id="Grupo_89447" data-name="Grupo 89447" transform="translate(1.521 37.71)">
          <path id="Trazado_116409" data-name="Trazado 116409" d="M579.193,50.568h2.162v13.7h-3.048V52.732a4.156,4.156,0,0,1-1.421.492,9.563,9.563,0,0,1-1.807.176V52.279a8.171,8.171,0,0,0,2.392-.536A4.059,4.059,0,0,0,579.193,50.568Z" transform="translate(-575.078 -50.412)" fill="#78909c"/>
          <path id="Trazado_116410" data-name="Trazado 116410" d="M580.249,54.109a3.33,3.33,0,0,1,1.089-2.72q1.087-.9,4.147-.9t4.169.895a3.289,3.289,0,0,1,1.109,2.724v6.543a3.712,3.712,0,0,1-1.073,2.876q-1.075.985-4.191.985t-4.183-.977a3.716,3.716,0,0,1-1.067-2.884Zm7.464-.086q0-1.994-1.613-2.14-.252-.024-.727-.024a4.363,4.363,0,0,0-.911.094,1.417,1.417,0,0,0-.8.552,2.472,2.472,0,0,0-.362,1.509v6.739q0,1.852.875,2.21a2.731,2.731,0,0,0,1.073.186c.42,0,.718-.01.9-.03a1.786,1.786,0,0,0,.607-.156q.964-.387.963-2.218V54.023Z" transform="translate(-569.899 -50.49)" fill="#78909c"/>
          <path id="Trazado_116411" data-name="Trazado 116411" d="M590.737,50.568H592.9v13.7h-3.052V52.732a4.124,4.124,0,0,1-1.421.492,9.507,9.507,0,0,1-1.805.176V52.279a8.171,8.171,0,0,0,2.392-.536A4.079,4.079,0,0,0,590.737,50.568Z" transform="translate(-563.519 -50.412)" fill="#78909c"/>
          <path id="Trazado_116412" data-name="Trazado 116412" d="M591.791,54.109a3.326,3.326,0,0,1,1.091-2.72q1.087-.9,4.145-.9t4.167.895a3.284,3.284,0,0,1,1.111,2.724v6.543a3.7,3.7,0,0,1-1.073,2.876q-1.075.985-4.191.985t-4.183-.977a3.716,3.716,0,0,1-1.067-2.884Zm7.464-.086q0-1.994-1.613-2.14-.252-.024-.727-.024a4.318,4.318,0,0,0-.909.094,1.41,1.41,0,0,0-.8.552,2.472,2.472,0,0,0-.364,1.509v6.739q0,1.852.875,2.21a2.735,2.735,0,0,0,1.075.186c.418,0,.719-.01.895-.03a1.8,1.8,0,0,0,.608-.156q.961-.387.961-2.218V54.023Z" transform="translate(-558.34 -50.49)" fill="#78909c"/>
          <path id="Trazado_116413" data-name="Trazado 116413" d="M599.556,54.109a3.324,3.324,0,0,1,1.089-2.72c.725-.6.116-.9,2.154-.9s5.42.3,6.161.895a3.29,3.29,0,0,1,1.111,2.724v6.543A3.712,3.712,0,0,1,609,63.528q-1.075.985-4.191.985t-4.183-.977a3.709,3.709,0,0,1-1.067-2.884Zm7.464-.086q0-1.994-1.613-2.14-.252-.024-.727-.024a4.349,4.349,0,0,0-.911.094,1.411,1.411,0,0,0-.8.552,2.473,2.473,0,0,0-.362,1.509v6.739q0,1.852.873,2.21a2.749,2.749,0,0,0,1.075.186c.418,0,.718-.01.9-.03a1.787,1.787,0,0,0,.607-.156q.964-.387.963-2.218V54.023Z" transform="translate(-550.563 -50.49)" fill="#78909c"/>
          <path id="Trazado_116414" data-name="Trazado 116414" d="M610.043,50.568H612.2v13.7h-3.05V52.732a4.14,4.14,0,0,1-1.421.492,9.527,9.527,0,0,1-1.807.176V52.279a8.17,8.17,0,0,0,2.394-.536A4.071,4.071,0,0,0,610.043,50.568Z" transform="translate(-544.184 -50.412)" fill="#78909c"/>
        </g>
      </g>
      <g id="Grupo_89451" data-name="Grupo 89451" transform="translate(0 76.411)">
        <g id="Grupo_89449" data-name="Grupo 89449">
          <path id="Trazado_116415" data-name="Trazado 116415" d="M578.433,59.748h2.161v13.7h-3.05V61.914a4.168,4.168,0,0,1-1.421.492,9.509,9.509,0,0,1-1.805.176V61.461a8.236,8.236,0,0,0,2.392-.536A4.076,4.076,0,0,0,578.433,59.748Z" transform="translate(-574.318 -59.594)" fill="#78909c"/>
          <path id="Trazado_116416" data-name="Trazado 116416" d="M586.259,63.29a3.326,3.326,0,0,1,1.089-2.722q1.09-.895,4.147-.9t4.167.895a3.287,3.287,0,0,1,1.111,2.724v6.543a3.7,3.7,0,0,1-1.073,2.874q-1.075.988-4.191.985t-4.185-.975a3.725,3.725,0,0,1-1.065-2.884Zm7.464-.086q0-1.994-1.613-2.14-.252-.024-.727-.024a4.219,4.219,0,0,0-.911.094,1.4,1.4,0,0,0-.8.552,2.45,2.45,0,0,0-.364,1.507v6.741q0,1.852.875,2.208a2.73,2.73,0,0,0,1.073.188,8.433,8.433,0,0,0,.9-.032,1.743,1.743,0,0,0,.607-.156q.964-.387.963-2.216V63.2Z" transform="translate(-562.359 -59.671)" fill="#78909c"/>
          <path id="Trazado_116417" data-name="Trazado 116417" d="M597.8,63.29a3.327,3.327,0,0,1,1.091-2.722q1.087-.895,4.145-.9t4.169.895a3.287,3.287,0,0,1,1.111,2.724v6.543a3.7,3.7,0,0,1-1.073,2.874q-1.078.988-4.193.985t-4.183-.975a3.719,3.719,0,0,1-1.067-2.884Zm7.466-.086q0-1.994-1.615-2.14c-.168-.016-.408-.024-.727-.024a4.2,4.2,0,0,0-.909.094,1.4,1.4,0,0,0-.8.552,2.452,2.452,0,0,0-.364,1.507v6.741q0,1.852.875,2.208a2.737,2.737,0,0,0,1.073.188,8.384,8.384,0,0,0,.9-.032,1.73,1.73,0,0,0,.606-.156q.964-.387.965-2.216V63.2Z" transform="translate(-550.801 -59.671)" fill="#78909c"/>
          <path id="Trazado_116418" data-name="Trazado 116418" d="M604.57,63.29a3.332,3.332,0,0,1,1.089-2.722q1.09-.895,4.147-.9t4.167.895a3.281,3.281,0,0,1,1.111,2.724v6.543a3.7,3.7,0,0,1-1.073,2.874q-1.075.988-4.191.985t-4.183-.975a3.718,3.718,0,0,1-1.067-2.884Zm7.464-.086q0-1.994-1.613-2.14-.252-.024-.727-.024a4.2,4.2,0,0,0-.909.094,1.4,1.4,0,0,0-.8.552,2.451,2.451,0,0,0-.364,1.507v6.741q0,1.852.875,2.208a2.73,2.73,0,0,0,1.073.188,8.383,8.383,0,0,0,.9-.032,1.732,1.732,0,0,0,.606-.156q.964-.387.963-2.216V63.2Z" transform="translate(-544.02 -59.671)" fill="#78909c"/>
        </g>
        <g id="Grupo_89450" data-name="Grupo 89450" transform="translate(15.802 18.856)">
          <path id="Trazado_116419" data-name="Trazado 116419" d="M582.213,72.709a3.319,3.319,0,0,1,1.091-2.718q1.087-.9,4.145-.9t4.169.895a3.288,3.288,0,0,1,1.109,2.722v6.545a3.715,3.715,0,0,1-1.073,2.876q-1.075.982-4.191.983t-4.183-.977a3.714,3.714,0,0,1-1.067-2.882Zm7.464-.084q0-1.994-1.613-2.142c-.168-.014-.41-.022-.727-.022a4.352,4.352,0,0,0-.911.092,1.411,1.411,0,0,0-.8.554,2.445,2.445,0,0,0-.364,1.509v6.737q0,1.852.875,2.212a2.778,2.778,0,0,0,1.075.186,8.392,8.392,0,0,0,.895-.032,1.838,1.838,0,0,0,.608-.154q.961-.39.961-2.22V72.625Z" transform="translate(-582.213 -69.092)" fill="#78909c"/>
          <path id="Trazado_116420" data-name="Trazado 116420" d="M592.7,69.169h2.164v13.7h-3.05V71.333a4.114,4.114,0,0,1-1.421.494,9.724,9.724,0,0,1-1.807.174V70.88a8.109,8.109,0,0,0,2.392-.536A4.041,4.041,0,0,0,592.7,69.169Z" transform="translate(-575.832 -69.015)" fill="#78909c"/>
          <path id="Trazado_116421" data-name="Trazado 116421" d="M598.527,72.709a3.318,3.318,0,0,1,1.089-2.718q1.087-.9,4.147-.9t4.167.895a3.283,3.283,0,0,1,1.111,2.722v6.545a3.715,3.715,0,0,1-1.073,2.876q-1.075.982-4.191.983t-4.183-.977a3.707,3.707,0,0,1-1.067-2.882Zm7.464-.084q0-1.994-1.613-2.142c-.168-.014-.41-.022-.727-.022a4.351,4.351,0,0,0-.911.092,1.415,1.415,0,0,0-.8.554,2.461,2.461,0,0,0-.362,1.509v6.737q0,1.852.873,2.212a2.786,2.786,0,0,0,1.075.186,8.436,8.436,0,0,0,.9-.032,1.829,1.829,0,0,0,.607-.154q.964-.39.963-2.22V72.625Z" transform="translate(-565.875 -69.092)" fill="#78909c"/>
          <path id="Trazado_116422" data-name="Trazado 116422" d="M609.678,69.169h2.162v13.7h-3.05V71.333a4.114,4.114,0,0,1-1.421.494,9.691,9.691,0,0,1-1.807.174V70.88a8.093,8.093,0,0,0,2.392-.536A4.061,4.061,0,0,0,609.678,69.169Z" transform="translate(-558.83 -69.015)" fill="#78909c"/>
        </g>
      </g>
      <g id="Grupo_89456" data-name="Grupo 89456" transform="translate(8.674 18.42)">
        <g id="_8" data-name="8">
          <g id="Grupo_89452" data-name="Grupo 89452" transform="translate(45.652 36.9)">
            <path id="Trazado_116423" data-name="Trazado 116423" d="M601.493,53.124l2.086-3.829a.46.46,0,0,1,.61-.092l11.677,5.924c.322.164.5.462.39.665l-2.428,4.455c-.11.2-.456.216-.769.034l-11.311-6.6A.457.457,0,0,1,601.493,53.124Z" transform="translate(-601.461 -49.133)" fill="#b1bac3"/>
            <path id="Trazado_116424" data-name="Trazado 116424" d="M606.708,57.191l2.9-5.33c.1-.184.452-.186.782-.006l3.395,1.847c.33.18.52.478.418.662L611.3,59.7c-.1.182-.452.184-.783,0l-3.395-1.847C606.8,57.673,606.607,57.375,606.708,57.191Z" transform="translate(-596.233 -46.541)" fill="#788f9b"/>
            <path id="Trazado_116425" data-name="Trazado 116425" d="M606.983,57.949l3.29-6.039c.148-.272.732-.254,1.3.042l17.976,9.2c.758.394,1.243.979,1.071,1.295L626.8,69.474c-.174.316-.927.226-1.669-.2l-17.4-10.256C607.167,58.7,606.834,58.223,606.983,57.949Z" transform="translate(-595.966 -46.544)" fill="#0ec0c0"/>
            <path id="Trazado_116426" data-name="Trazado 116426" d="M605.941,50.1l-2.553,4.69.543.317,4.149,2.421.543.317,2.726-5Z" transform="translate(-599.531 -48.162)" fill="#788f9b"/>
            <path id="Trazado_116427" data-name="Trazado 116427" d="M603.464,56.252l3.433-6.307a.566.566,0,0,1,.767-.092l3.114,1.7c.3.166.454.478.336.695l-3.433,6.3a.564.564,0,0,1-.767.094l-3.114-1.7C603.5,56.781,603.346,56.468,603.464,56.252Z" transform="translate(-599.494 -48.513)" fill="#0ec0c0"/>
            <path id="Trazado_116428" data-name="Trazado 116428" d="M603.186,49.371,634.851,66.71l-1.5,2.758L601.683,52.13Z" transform="translate(-601.238 -48.894)" fill="#b1bac3" opacity="0.54" style="mix-blend-mode: overlay;isolation: isolate"/>
          </g>
          <g id="Grupo_89455" data-name="Grupo 89455">
            <g id="Grupo_89453" data-name="Grupo 89453">
              <path id="Trazado_116429" data-name="Trazado 116429" d="M614.665,80.506A25.922,25.922,0,1,0,580.7,66.712,25.922,25.922,0,0,0,614.665,80.506Zm-1.453-3.443A22.184,22.184,0,1,1,625.017,48,22.187,22.187,0,0,1,613.212,77.064Z" transform="translate(-578.652 -30.697)" fill="#b1bac3"/>
            </g>
            <g id="Grupo_89454" data-name="Grupo 89454" transform="translate(2.763 3.706)">
              <path id="Trazado_116430" data-name="Trazado 116430" d="M611.539,74.523a21.439,21.439,0,1,0-28.091-11.409A21.438,21.438,0,0,0,611.539,74.523Zm.326,2.1A22.94,22.94,0,1,1,624.033,46.58,22.919,22.919,0,0,1,611.866,76.62Z" transform="translate(-580.032 -32.549)" fill="#788f9b"/>
            </g>
          </g>
        </g>
        <path id="_9" data-name="9" d="M586.316,66.573a19.829,19.829,0,0,1-4.958-12.135c-.184-4.784.482-9.461,3.433-13.324a19.9,19.9,0,0,1,4.807-4.5,19.364,19.364,0,0,1,2.81-1.543c.735-.324,2.278-.5,2.848-.995a23.525,23.525,0,0,0-6.969,9.289,16.443,16.443,0,0,0,1.625,14.155,15.576,15.576,0,0,0,5.094,5.122c2.3,1.4,5.046,1.383,7.316,2.684a7.493,7.493,0,0,1,3.481,3.621c1.867,4.812-4.465,5.334-7.616,4.694A21.583,21.583,0,0,1,586.316,66.573Z" transform="translate(-575.97 -27.308)" fill="#f0f1f1" opacity="0.34"/>
      </g>
    </g>
  </g>
</svg>
