<svg xmlns="http://www.w3.org/2000/svg" width="121" height="121" viewBox="0 0 121 121">
  <g id="Grupo_89461" data-name="Grupo 89461" transform="translate(-265 -9161)">
    <path id="Trazado_116093" data-name="Trazado 116093" d="M60.5,0A60.5,60.5,0,1,1,0,60.5,60.724,60.724,0,0,1,60.5,0Z" transform="translate(265 9161)" fill="#f4cd58"/>
    <path id="Trazado_107120" data-name="Trazado 107120" d="M53.993,0A53.993,53.993,0,1,1,0,53.993,53.993,53.993,0,0,1,53.993,0Z" transform="translate(272 9168)" fill="#fff"/>
    <g id="Grupo_86326" data-name="Grupo 86326" transform="translate(292.5 9187)">
      <path id="Trazado_116082" data-name="Trazado 116082" d="M43.659,0H8.283C7.3,0,6.5.8,6.5,2.348V67.041A1.836,1.836,0,0,0,8.283,68.26H57.131a1.836,1.836,0,0,0,1.783-1.219V15.819c0-.848-.113-1.121-.313-1.323L44.417.313A1.077,1.077,0,0,0,43.659,0Z" transform="translate(0 0)" fill="#e9e9e0"/>
      <path id="Trazado_116083" data-name="Trazado 116083" d="M37.5.151V14.594H51.943Z" transform="translate(6.787 0.033)" fill="#d9d7ca"/>
      <path id="Trazado_116084" data-name="Trazado 116084" d="M57.131,59.722H8.283A1.783,1.783,0,0,1,6.5,57.939V39H58.914V57.939A1.783,1.783,0,0,1,57.131,59.722Z" transform="translate(0 8.538)" fill="#70d2df"/>
      <g id="Grupo_86324" data-name="Grupo 86324" transform="translate(16.266 52.32)">
        <path id="Trazado_116085" data-name="Trazado 116085" d="M20.445,49.24l3.117,5.967H21.245L19.3,50.573h-.167l-2.1,4.633H14.712l3.117-5.967-3.317-6.317H16.8l2.166,5h.167l2.35-5h2.283Z" transform="translate(-14.512 -42.923)" fill="#fff"/>
        <path id="Trazado_116086" data-name="Trazado 116086" d="M33.671,42.924H35.7V55.206H33.671v-8.45l-2.75,6.832H29.155l-2.767-6.832v8.45H24.355V42.924h2.033l3.649,8.4Z" transform="translate(-12.357 -42.923)" fill="#fff"/>
        <path id="Trazado_116087" data-name="Trazado 116087" d="M38.228,42.924V53.69h5.65v1.516H36.195V42.924Z" transform="translate(-9.765 -42.923)" fill="#fff"/>
      </g>
      <path id="Trazado_116088" data-name="Trazado 116088" d="M15.719,25.752a1.219,1.219,0,0,1-.862-2.081l7.314-7.314a1.219,1.219,0,0,1,1.724,1.724l-7.314,7.314A1.216,1.216,0,0,1,15.719,25.752Z" transform="translate(1.751 3.503)" fill="#70d2df"/>
      <path id="Trazado_116089" data-name="Trazado 116089" d="M23.033,31.752a1.216,1.216,0,0,1-.862-.357l-7.314-7.314a1.219,1.219,0,0,1,1.724-1.724l7.314,7.314a1.219,1.219,0,0,1-.862,2.081Z" transform="translate(1.751 4.816)" fill="#70d2df"/>
      <path id="Trazado_116090" data-name="Trazado 116090" d="M33.719,31.752a1.219,1.219,0,0,1-.862-2.081l7.314-7.314a1.219,1.219,0,0,1,1.724,1.724l-7.314,7.314A1.216,1.216,0,0,1,33.719,31.752Z" transform="translate(5.692 4.816)" fill="#70d2df"/>
      <path id="Trazado_116091" data-name="Trazado 116091" d="M41.033,25.752a1.216,1.216,0,0,1-.862-.357l-7.314-7.314a1.219,1.219,0,0,1,1.724-1.724l7.314,7.314a1.219,1.219,0,0,1-.862,2.081Z" transform="translate(5.692 3.503)" fill="#70d2df"/>
      <path id="Trazado_116092" data-name="Trazado 116092" d="M24.719,36.16a1.222,1.222,0,0,1-1.149-1.626l7.314-20.722a1.219,1.219,0,0,1,2.3.812L25.868,35.346A1.218,1.218,0,0,1,24.719,36.16Z" transform="translate(3.722 2.846)" fill="#70d2df"/>
    </g>
    <g id="Grupo_86327" data-name="Grupo 86327" transform="translate(297.207 9193.13)">
      <path id="Trazado_116094" data-name="Trazado 116094" d="M38.952-6.13H3.576c-.985,0-1.783.8-1.783,2.348V60.911A1.835,1.835,0,0,0,3.576,62.13H52.424a1.835,1.835,0,0,0,1.783-1.219V9.689c0-.848-.113-1.121-.313-1.322L39.71-5.817A1.076,1.076,0,0,0,38.952-6.13Z" fill="#e9e9e0"/>
      <path id="Trazado_116095" data-name="Trazado 116095" d="M39.58-5.946V8.5H54.023Z" fill="#d9d7ca"/>
      <path id="Trazado_116096" data-name="Trazado 116096" d="M52.424,62.13H3.576a1.783,1.783,0,0,1-1.783-1.783V41.408H54.207V60.347A1.783,1.783,0,0,1,52.424,62.13Z" fill="#f4cd58"/>
      <g id="Grupo_86327-2" data-name="Grupo 86327">
        <path id="Trazado_116097" data-name="Trazado 116097" d="M14.617,45.941v9.567a3.054,3.054,0,0,1-.317,1.457,2.59,2.59,0,0,1-.849.95,3.386,3.386,0,0,1-1.225.5,7.115,7.115,0,0,1-1.425.141,5.771,5.771,0,0,1-.858-.075,7.343,7.343,0,0,1-1.017-.233q-.525-.159-1.008-.359A3.765,3.765,0,0,1,7.1,57.44l.85-1.35a2.477,2.477,0,0,0,.475.242c.206.082.432.16.676.232s.5.136.766.192a3.66,3.66,0,0,0,.75.083,2.558,2.558,0,0,0,1.408-.342,1.346,1.346,0,0,0,.558-1.158v-9.4h2.033Z" fill="#fff"/>
        <path id="Trazado_116098" data-name="Trazado 116098" d="M24.567,55.107a3.172,3.172,0,0,1-.275,1.292,3.379,3.379,0,0,1-.775,1.1,3.713,3.713,0,0,1-1.234.758,4.593,4.593,0,0,1-1.666.283c-.267,0-.541-.015-.825-.041a6.672,6.672,0,0,1-.858-.142,4.5,4.5,0,0,1-.826-.275,2.679,2.679,0,0,1-.675-.426l.35-1.433a3.562,3.562,0,0,0,.591.258c.239.083.485.161.741.233a7.848,7.848,0,0,0,.767.176,4.144,4.144,0,0,0,.717.067,2.287,2.287,0,0,0,1.557-.476,1.774,1.774,0,0,0,.542-1.408,1.345,1.345,0,0,0-.383-.966,4.143,4.143,0,0,0-.958-.725q-.574-.325-1.242-.65a7.571,7.571,0,0,1-1.25-.767,4.013,4.013,0,0,1-.966-1.041,2.727,2.727,0,0,1-.383-1.5,3.342,3.342,0,0,1,.3-1.449,3.245,3.245,0,0,1,.808-1.076,3.59,3.59,0,0,1,1.184-.675,4.315,4.315,0,0,1,1.425-.233,8.735,8.735,0,0,1,1.549.142,3.417,3.417,0,0,1,1.266.458c-.067.144-.144.3-.233.475s-.173.333-.249.483-.144.276-.2.376a1.516,1.516,0,0,1-.1.167,2.037,2.037,0,0,1-.226-.133,1.689,1.689,0,0,0-.358-.167,2.554,2.554,0,0,0-.617-.117,5.862,5.862,0,0,0-.984.017,1.714,1.714,0,0,0-.633.191,2.175,2.175,0,0,0-.534.391,1.789,1.789,0,0,0-.367.526,1.343,1.343,0,0,0-.133.558,1.507,1.507,0,0,0,.383,1.075,3.768,3.768,0,0,0,.949.717q.565.309,1.234.6a6.622,6.622,0,0,1,1.242.708A3.578,3.578,0,0,1,24.18,53.5,3.026,3.026,0,0,1,24.567,55.107Z" fill="#fff"/>
        <path id="Trazado_116099" data-name="Trazado 116099" d="M36.632,52.274a8.7,8.7,0,0,1-.391,2.733,5.594,5.594,0,0,1-1.083,1.966,4.559,4.559,0,0,1-1.617,1.183,5.323,5.323,0,0,1-4.049,0,4.523,4.523,0,0,1-1.616-1.183,5.589,5.589,0,0,1-1.084-1.966,9.719,9.719,0,0,1,0-5.458,5.59,5.59,0,0,1,1.084-1.957A4.633,4.633,0,0,1,29.492,46.4a5.215,5.215,0,0,1,4.049,0,4.633,4.633,0,0,1,1.617,1.192,5.613,5.613,0,0,1,1.083,1.957A8.619,8.619,0,0,1,36.632,52.274Zm-5.165,4.65a2.935,2.935,0,0,0,1.175-.241,2.625,2.625,0,0,0,1-.791,3.988,3.988,0,0,0,.691-1.442,8.6,8.6,0,0,0,.267-2.175,8.5,8.5,0,0,0-.258-2.125,4.285,4.285,0,0,0-.667-1.442,2.579,2.579,0,0,0-.966-.816,2.69,2.69,0,0,0-1.143-.25,3.015,3.015,0,0,0-1.175.233,2.515,2.515,0,0,0-1,.791,4.062,4.062,0,0,0-.691,1.442,8.437,8.437,0,0,0-.267,2.166,8.615,8.615,0,0,0,.258,2.133,4.178,4.178,0,0,0,.667,1.442,2.682,2.682,0,0,0,.967.817A2.607,2.607,0,0,0,31.467,56.924Z" fill="#fff"/>
        <path id="Trazado_116100" data-name="Trazado 116100" d="M48.332,46.191V58.473H46.3l-4.816-8.465v8.465H39.449V46.191h2.034L46.3,54.657V46.191Z" fill="#fff"/>
      </g>
      <g id="Grupo_86328" data-name="Grupo 86328">
        <path id="Trazado_116101" data-name="Trazado 116101" d="M17.639,17.03V12.154a1.22,1.22,0,0,1,1.219-1.219,1.219,1.219,0,0,0,0-2.438A3.662,3.662,0,0,0,15.2,12.154V17.03a2.44,2.44,0,0,1-2.438,2.437,1.219,1.219,0,0,0,0,2.438A2.441,2.441,0,0,1,15.2,24.343v4.876a3.662,3.662,0,0,0,3.657,3.657,1.219,1.219,0,1,0,0-2.438,1.22,1.22,0,0,1-1.219-1.219V24.343a4.848,4.848,0,0,0-1.684-3.657A4.846,4.846,0,0,0,17.639,17.03Z" fill="#f4cd58"/>
        <circle id="Elipse_4962" data-name="Elipse 4962" cx="1.828" cy="1.828" r="1.828" transform="translate(25.562 14.592)" fill="#f4cd58"/>
        <path id="Trazado_116102" data-name="Trazado 116102" d="M42.018,19.467A2.44,2.44,0,0,1,39.58,17.03V12.154A3.662,3.662,0,0,0,35.923,8.5a1.219,1.219,0,1,0,0,2.438,1.22,1.22,0,0,1,1.219,1.219V17.03a4.844,4.844,0,0,0,1.685,3.656,4.846,4.846,0,0,0-1.685,3.657v4.876a1.22,1.22,0,0,1-1.219,1.219,1.219,1.219,0,1,0,0,2.438,3.662,3.662,0,0,0,3.657-3.657V24.343a2.441,2.441,0,0,1,2.438-2.438,1.219,1.219,0,0,0,0-2.438Z" fill="#f4cd58"/>
        <path id="Trazado_116103" data-name="Trazado 116103" d="M27.391,23.124a1.218,1.218,0,0,0-1.219,1.219V28a1.218,1.218,0,1,0,2.437,0V24.343A1.218,1.218,0,0,0,27.391,23.124Z" fill="#f4cd58"/>
      </g>
    </g>
  </g>
</svg>
