<svg xmlns="http://www.w3.org/2000/svg" width="121" height="121" viewBox="0 0 121 121">
  <g id="Grupo_86331" data-name="Grupo 86331" transform="translate(-265 -7485)">
    <g id="Grupo_55930" data-name="Grupo 55930" transform="translate(265 7485)">
      <path id="Trazado_116093" data-name="Trazado 116093" d="M60.5,0A60.5,60.5,0,1,1,0,60.5,60.5,60.5,0,0,1,60.5,0Z" fill="#70d2df"/>
      <path id="Trazado_107120" data-name="Trazado 107120" d="M53.993,0A53.993,53.993,0,1,1,0,53.993,53.993,53.993,0,0,1,53.993,0Z" transform="translate(7 7)" fill="#fff"/>
      <g id="Grupo_86332" data-name="Grupo 86332" transform="translate(32.207 32.131)">
        <path id="Trazado_116104" data-name="Trazado 116104" d="M38.952-6.13H3.576c-.985,0-1.783.8-1.783,2.348V60.911A1.835,1.835,0,0,0,3.576,62.13H52.424a1.835,1.835,0,0,0,1.783-1.219V9.689c0-.848-.113-1.121-.313-1.322L39.71-5.817A1.076,1.076,0,0,0,38.952-6.13Z" fill="#e9e9e0"/>
        <path id="Trazado_116105" data-name="Trazado 116105" d="M39.58-5.946V8.5H54.023Z" fill="#d9d7ca"/>
        <path id="Trazado_116106" data-name="Trazado 116106" d="M52.424,62.13H3.576a1.783,1.783,0,0,1-1.783-1.783V41.408H54.207V60.347A1.783,1.783,0,0,1,52.424,62.13Z" fill="#70d2df"/>
        <g id="Grupo_86333" data-name="Grupo 86333">
          <path id="Trazado_116107" data-name="Trazado 116107" d="M24.567,55.107a3.172,3.172,0,0,1-.275,1.292,3.379,3.379,0,0,1-.775,1.1,3.713,3.713,0,0,1-1.234.758,4.593,4.593,0,0,1-1.666.283c-.267,0-.541-.015-.825-.041a6.672,6.672,0,0,1-.858-.142,4.5,4.5,0,0,1-.826-.275,2.679,2.679,0,0,1-.675-.426l.35-1.433a3.562,3.562,0,0,0,.591.258c.239.083.485.161.741.233a7.848,7.848,0,0,0,.767.176,4.144,4.144,0,0,0,.717.067,2.287,2.287,0,0,0,1.557-.476,1.774,1.774,0,0,0,.542-1.408,1.345,1.345,0,0,0-.383-.966,4.143,4.143,0,0,0-.958-.725q-.574-.325-1.242-.65a7.571,7.571,0,0,1-1.25-.767,4.013,4.013,0,0,1-.966-1.041,2.727,2.727,0,0,1-.383-1.5,3.342,3.342,0,0,1,.3-1.449,3.245,3.245,0,0,1,.808-1.076,3.59,3.59,0,0,1,1.184-.675,4.315,4.315,0,0,1,1.425-.233,8.735,8.735,0,0,1,1.549.142,3.417,3.417,0,0,1,1.266.458c-.067.144-.144.3-.233.475s-.173.333-.249.483-.144.276-.2.376a1.516,1.516,0,0,1-.1.167,2.037,2.037,0,0,1-.226-.133,1.689,1.689,0,0,0-.358-.167,2.554,2.554,0,0,0-.617-.117,5.862,5.862,0,0,0-.984.017,1.714,1.714,0,0,0-.633.191,2.175,2.175,0,0,0-.534.391,1.789,1.789,0,0,0-.367.526,1.343,1.343,0,0,0-.133.558,1.507,1.507,0,0,0,.383,1.075,3.768,3.768,0,0,0,.949.717q.565.309,1.234.6a6.622,6.622,0,0,1,1.242.708A3.578,3.578,0,0,1,24.18,53.5,3.026,3.026,0,0,1,24.567,55.107Z" fill="#fff"/>
          <path id="Trazado_116108" data-name="Trazado 116108" d="M36.632,52.274a8.7,8.7,0,0,1-.391,2.733,5.594,5.594,0,0,1-1.083,1.966,4.559,4.559,0,0,1-1.617,1.183,5.323,5.323,0,0,1-4.049,0,4.523,4.523,0,0,1-1.616-1.183,5.589,5.589,0,0,1-1.084-1.966,9.719,9.719,0,0,1,0-5.458,5.59,5.59,0,0,1,1.084-1.957A4.633,4.633,0,0,1,29.492,46.4a5.215,5.215,0,0,1,4.049,0,4.633,4.633,0,0,1,1.617,1.192,5.613,5.613,0,0,1,1.083,1.957A8.619,8.619,0,0,1,36.632,52.274Zm-5.165,4.65a2.935,2.935,0,0,0,1.175-.241,2.625,2.625,0,0,0,1-.791,3.988,3.988,0,0,0,.691-1.442,8.6,8.6,0,0,0,.267-2.175,8.5,8.5,0,0,0-.258-2.125,4.285,4.285,0,0,0-.667-1.442,2.579,2.579,0,0,0-.966-.816,2.69,2.69,0,0,0-1.143-.25,3.015,3.015,0,0,0-1.175.233,2.515,2.515,0,0,0-1,.791,4.062,4.062,0,0,0-.691,1.442,8.437,8.437,0,0,0-.267,2.166,8.615,8.615,0,0,0,.258,2.133,4.178,4.178,0,0,0,.667,1.442,2.682,2.682,0,0,0,.967.817A2.607,2.607,0,0,0,31.467,56.924Z" fill="#fff"/>
          <path id="Trazado_116109" data-name="Trazado 116109" d="M48.332,46.191V58.473H46.3l-4.816-8.465v8.465H39.449V46.191h2.034L46.3,54.657V46.191Z" fill="#fff"/>
          <g id="Grupo_86332-2" data-name="Grupo 86332">
            <path id="Trazado_116110" data-name="Trazado 116110" d="M7.285,46.064a15.82,15.82,0,0,1,2.972-.26,5.21,5.21,0,0,1,3.458.915,2.642,2.642,0,0,1,1.047,2.224,2.993,2.993,0,0,1-2.131,2.767v.037a3.247,3.247,0,0,1,2.6,3.159,3.4,3.4,0,0,1-1.065,2.524c-.879.8-2.3,1.177-4.356,1.177a19.164,19.164,0,0,1-2.523-.149Zm1.626,5.16h1.477c1.719,0,2.729-.9,2.729-2.113,0-1.476-1.122-2.055-2.766-2.055a6.92,6.92,0,0,0-1.44.112Zm0,6.038a8.84,8.84,0,0,0,1.364.074c1.683,0,3.234-.616,3.234-2.448,0-1.72-1.476-2.43-3.252-2.43H8.911Z" fill="#fff"/>
          </g>
        </g>
        <g id="Grupo_86336" data-name="Grupo 86336">
          <g id="Grupo_86334" data-name="Grupo 86334">
            <path id="Trazado_116111" data-name="Trazado 116111" d="M20.962,18.813H18.814V12.936l.021-.965.035-1.057q-.534.536-.743.7l-1.167.938-1.035-1.293,3.272-2.6h1.765V18.813Z" fill="#70d2df"/>
            <path id="Trazado_116112" data-name="Trazado 116112" d="M30.819,13.735a7.081,7.081,0,0,1-.872,3.939,3.025,3.025,0,0,1-2.685,1.278,2.989,2.989,0,0,1-2.65-1.32,6.979,6.979,0,0,1-.893-3.9,7.146,7.146,0,0,1,.869-3.963A3.01,3.01,0,0,1,27.262,8.5a3,3,0,0,1,2.657,1.334A6.988,6.988,0,0,1,30.819,13.735Zm-4.967,0a7.912,7.912,0,0,0,.323,2.678,1.118,1.118,0,0,0,1.087.809,1.13,1.13,0,0,0,1.084-.819,7.7,7.7,0,0,0,.333-2.668,7.657,7.657,0,0,0-.337-2.685,1.125,1.125,0,0,0-2.164,0A7.915,7.915,0,0,0,25.852,13.735Z" fill="#70d2df"/>
            <path id="Trazado_116113" data-name="Trazado 116113" d="M37.2,18.813H35.056V12.936l.021-.965.035-1.057q-.534.536-.743.7l-1.167.938-1.035-1.293,3.272-2.6H37.2V18.813Z" fill="#70d2df"/>
          </g>
          <g id="Grupo_86335" data-name="Grupo 86335">
            <path id="Trazado_116114" data-name="Trazado 116114" d="M22.7,27.659a7.077,7.077,0,0,1-.872,3.938,3.023,3.023,0,0,1-2.685,1.279,2.989,2.989,0,0,1-2.65-1.32,6.979,6.979,0,0,1-.893-3.9,7.147,7.147,0,0,1,.869-3.964,3.009,3.009,0,0,1,2.674-1.274A3,3,0,0,1,21.8,23.754,6.994,6.994,0,0,1,22.7,27.659Zm-4.967,0a7.89,7.89,0,0,0,.323,2.678,1.119,1.119,0,0,0,1.087.809,1.131,1.131,0,0,0,1.084-.82,7.687,7.687,0,0,0,.333-2.667,7.65,7.65,0,0,0-.337-2.685,1.125,1.125,0,0,0-2.164,0A7.881,7.881,0,0,0,17.731,27.659Z" fill="#70d2df"/>
            <path id="Trazado_116115" data-name="Trazado 116115" d="M29.082,32.736H26.936V26.86l.021-.966.034-1.056q-.535.536-.743.7l-1.167.938-1.035-1.292,3.272-2.606h1.765V32.736Z" fill="#70d2df"/>
            <path id="Trazado_116116" data-name="Trazado 116116" d="M37.2,32.736H35.056V26.86l.021-.966.035-1.056q-.534.536-.743.7l-1.167.938-1.035-1.292,3.272-2.606H37.2V32.736Z" fill="#70d2df"/>
          </g>
        </g>
      </g>
    </g>
  </g>
</svg>
