<svg xmlns="http://www.w3.org/2000/svg" width="121" height="121" viewBox="0 0 121 121">
  <g id="Grupo_86325" data-name="Grupo 86325" transform="translate(-265 -7485)">
    <g id="Grupo_55930" data-name="Grupo 55930" transform="translate(265 7485)">
      <path id="Trazado_116093" data-name="Trazado 116093" d="M60.5,0A60.5,60.5,0,1,1,0,60.5,60.5,60.5,0,0,1,60.5,0Z" fill="#70d2df"/>
      <path id="Trazado_107120" data-name="Trazado 107120" d="M53.993,0A53.993,53.993,0,1,1,0,53.993,53.993,53.993,0,0,1,53.993,0Z" transform="translate(7 7)" fill="#fff"/>
      <g id="Grupo_86324" data-name="Grupo 86324" transform="translate(27.793 26)">
        <path id="Trazado_116082" data-name="Trazado 116082" d="M43.659,0H8.283C7.3,0,6.5.8,6.5,2.348V67.041A1.836,1.836,0,0,0,8.283,68.26H57.131a1.836,1.836,0,0,0,1.783-1.219V15.819c0-.848-.113-1.121-.313-1.323L44.417.313A1.077,1.077,0,0,0,43.659,0Z" transform="translate(0 0)" fill="#e9e9e0"/>
        <path id="Trazado_116083" data-name="Trazado 116083" d="M37.5.151V14.594H51.943Z" transform="translate(6.787 0.033)" fill="#d9d7ca"/>
        <path id="Trazado_116084" data-name="Trazado 116084" d="M57.131,59.722H8.283A1.783,1.783,0,0,1,6.5,57.939V39H58.914V57.939A1.783,1.783,0,0,1,57.131,59.722Z" transform="translate(0 8.538)" fill="#70d2df"/>
        <g id="Grupo_86324-2" data-name="Grupo 86324" transform="translate(16.266 52.32)">
          <path id="Trazado_116085" data-name="Trazado 116085" d="M20.445,49.24l3.117,5.967H21.245L19.3,50.573h-.167l-2.1,4.633H14.712l3.117-5.967-3.317-6.317H16.8l2.166,5h.167l2.35-5h2.283Z" transform="translate(-14.512 -42.923)" fill="#fff"/>
          <path id="Trazado_116086" data-name="Trazado 116086" d="M33.671,42.924H35.7V55.206H33.671v-8.45l-2.75,6.832H29.155l-2.767-6.832v8.45H24.355V42.924h2.033l3.649,8.4Z" transform="translate(-12.357 -42.923)" fill="#fff"/>
          <path id="Trazado_116087" data-name="Trazado 116087" d="M38.228,42.924V53.69h5.65v1.516H36.195V42.924Z" transform="translate(-9.765 -42.923)" fill="#fff"/>
        </g>
        <path id="Trazado_116088" data-name="Trazado 116088" d="M15.719,25.752a1.219,1.219,0,0,1-.862-2.081l7.314-7.314a1.219,1.219,0,0,1,1.724,1.724l-7.314,7.314A1.216,1.216,0,0,1,15.719,25.752Z" transform="translate(1.751 3.503)" fill="#70d2df"/>
        <path id="Trazado_116089" data-name="Trazado 116089" d="M23.033,31.752a1.216,1.216,0,0,1-.862-.357l-7.314-7.314a1.219,1.219,0,0,1,1.724-1.724l7.314,7.314a1.219,1.219,0,0,1-.862,2.081Z" transform="translate(1.751 4.816)" fill="#70d2df"/>
        <path id="Trazado_116090" data-name="Trazado 116090" d="M33.719,31.752a1.219,1.219,0,0,1-.862-2.081l7.314-7.314a1.219,1.219,0,0,1,1.724,1.724l-7.314,7.314A1.216,1.216,0,0,1,33.719,31.752Z" transform="translate(5.692 4.816)" fill="#70d2df"/>
        <path id="Trazado_116091" data-name="Trazado 116091" d="M41.033,25.752a1.216,1.216,0,0,1-.862-.357l-7.314-7.314a1.219,1.219,0,0,1,1.724-1.724l7.314,7.314a1.219,1.219,0,0,1-.862,2.081Z" transform="translate(5.692 3.503)" fill="#70d2df"/>
        <path id="Trazado_116092" data-name="Trazado 116092" d="M24.719,36.16a1.222,1.222,0,0,1-1.149-1.626l7.314-20.722a1.219,1.219,0,0,1,2.3.812L25.868,35.346A1.218,1.218,0,0,1,24.719,36.16Z" transform="translate(3.722 2.846)" fill="#70d2df"/>
      </g>
    </g>
  </g>
</svg>
