<svg xmlns="http://www.w3.org/2000/svg" width="105" height="98.174" viewBox="0 0 105 98.174">
  <g id="_11" data-name="11" transform="translate(-30.995 -354.527)">
    <g id="Grupo_89349" data-name="Grupo 89349" transform="translate(30.995 383.838)">
      <g id="Grupo_89346" data-name="Grupo 89346" transform="translate(5.976)">
        <path id="Trazado_116216" data-name="Trazado 116216" d="M116.855,373.86H38.7a3.845,3.845,0,0,0-3.76,3.9V426.23a3.847,3.847,0,0,0,3.76,3.9h78.159a3.846,3.846,0,0,0,3.76-3.9V377.762A3.844,3.844,0,0,0,116.855,373.86Z" transform="translate(-34.936 -373.86)" fill="#cfd8dc"/>
        <path id="Trazado_116217" data-name="Trazado 116217" d="M39.519,376.09h73.334a3.053,3.053,0,0,1,3.025,3.063v44.7a3.069,3.069,0,0,1-1.21,2.441L38.018,376.5A2.991,2.991,0,0,1,39.519,376.09Z" transform="translate(-33.345 -372.709)" fill="#2a445d"/>
        <path id="Trazado_116218" data-name="Trazado 116218" d="M38.537,376.359l76.649,49.8a2.979,2.979,0,0,1-1.815.62H40.038a3.052,3.052,0,0,1-3.026-3.061v-44.7A3.077,3.077,0,0,1,38.537,376.359Z" transform="translate(-33.865 -372.57)" fill="#355168"/>
      </g>
      <g id="Grupo_89348" data-name="Grupo 89348" transform="translate(0 56.091)">
        <path id="Trazado_116219" data-name="Trazado 116219" d="M129.161,418.086l-.047-1.243L31,417.669v.488c0,1.314,1.387,2.38,3.1,2.38h91.97C127.81,420.538,129.213,419.43,129.161,418.086Z" transform="translate(-30.994 -407.766)" fill="#90a4ae"/>
        <g id="Grupo_89347" data-name="Grupo 89347">
          <path id="Trazado_116220" data-name="Trazado 116220" d="M120.166,410.856H40.089c-1.848,0-3.736.614-4.207,1.378l-4.741,7.7c-.59.958.66,1.76,2.791,1.76h92.393c2.13,0,3.379-.8,2.79-1.76l-4.742-7.7C123.9,411.47,122.013,410.856,120.166,410.856Z" transform="translate(-30.995 -410.856)" fill="#cfd8dc"/>
          <path id="Trazado_116221" data-name="Trazado 116221" d="M114.168,412.807H41.059c-1.686,0-3.217.281-3.405.628l-1.766,3.275c-.206.382,1.09.7,2.882.7h77.689c1.791,0,3.087-.314,2.881-.7l-1.766-3.275C117.385,413.088,115.854,412.807,114.168,412.807Z" transform="translate(-28.481 -409.849)" fill="#b0bec5"/>
          <path id="Trazado_116222" data-name="Trazado 116222" d="M112.129,411.352H41.215a14.765,14.765,0,0,0-3.064.17l-.459.848a11.714,11.714,0,0,0,2.929.176h72.1a11.724,11.724,0,0,0,2.929-.176l-.459-.848A14.765,14.765,0,0,0,112.129,411.352Z" transform="translate(-27.539 -410.6)" fill="#b0bec5"/>
          <path id="Trazado_116223" data-name="Trazado 116223" d="M88.2,416.087H52.181c-.829,0-1.54.124-1.58.277l-.349,1.4c-.039.159.625.291,1.477.291H88.65c.851,0,1.515-.132,1.475-.291l-.35-1.4C89.737,416.211,89.028,416.087,88.2,416.087Z" transform="translate(-21.056 -408.156)" fill="#b0bec5"/>
        </g>
      </g>
    </g>
    <g id="Grupo_89356" data-name="Grupo 89356" transform="translate(53.112 377.269)">
      <path id="Trazado_116224" data-name="Trazado 116224" d="M94.495,369.527H45.583v55.667H80.034l14.461-13.617Z" transform="translate(-45.583 -369.527)" fill="#0ec0c0"/>
      <path id="Trazado_116225" data-name="Trazado 116225" d="M90.5,371.762H47.546v48.891H77.8l12.7-11.959Z" transform="translate(-44.569 -368.374)" fill="#fff"/>
      <g id="Grupo_89355" data-name="Grupo 89355" transform="translate(5.321 9.501)">
        <g id="Grupo_89354" data-name="Grupo 89354">
          <g id="Grupo_89350" data-name="Grupo 89350" transform="translate(0 17.973)">
            <rect id="Rectángulo_15658" data-name="Rectángulo 15658" width="36.885" height="5.856" fill="#306b88"/>
          </g>
          <g id="Grupo_89351" data-name="Grupo 89351">
            <rect id="Rectángulo_15659" data-name="Rectángulo 15659" width="36.885" height="5.854" fill="#306b88"/>
          </g>
          <g id="Grupo_89352" data-name="Grupo 89352" transform="translate(0 8.987)">
            <rect id="Rectángulo_15660" data-name="Rectángulo 15660" width="36.885" height="5.854" fill="#306b88"/>
          </g>
          <g id="Grupo_89353" data-name="Grupo 89353" transform="translate(0 26.96)">
            <rect id="Rectángulo_15661" data-name="Rectángulo 15661" width="36.885" height="5.856" fill="#306b88"/>
          </g>
        </g>
      </g>
      <path id="Trazado_116226" data-name="Trazado 116226" d="M82.767,397.263,68.306,410.88V397.263Z" transform="translate(-33.854 -355.212)" fill="#2dd"/>
    </g>
    <path id="Trazado_116227" data-name="Trazado 116227" d="M96.88,370.016l-.89-4.867-3.721.047a12.532,12.532,0,0,0-1.3-2.223l1.85-3.2-3.807-3.157-2.791,2.4a12.719,12.719,0,0,0-2.462-.881l-.632-3.605-4.947.03-.588,3.6a12.69,12.69,0,0,0-2.479.919l-2.781-2.335-.108.092-3.663,3.11,1.86,3.131a12.854,12.854,0,0,0-1.3,2.3l-3.631,0-.829,4.876,3.46,1.211a12.57,12.57,0,0,0,.484,2.58L65.8,376.4l2.5,4.268,3.464-1.308a12.435,12.435,0,0,0,2,1.637l-.646,3.643L77.77,386.3l1.83-3.261a12.7,12.7,0,0,0,2.552-.026l1.865,3.231,4.636-1.718-.355-1.883-.346-1.809c.337-.235.666-.485.982-.754q.5-.43.949-.893l3.517,1.284,2.447-4.3-2.9-2.379a12.783,12.783,0,0,0,.426-2.5Zm-11.039,6.425a8.112,8.112,0,0,1-.975.7,7.828,7.828,0,1,1,.975-.7Z" transform="translate(17.375 0)" fill="#f4cd25"/>
    <path id="Trazado_116228" data-name="Trazado 116228" d="M84.646,379.208l-.412-4.583-3.451-.27a11.673,11.673,0,0,0-1.014-2.17l1.985-2.811-3.261-3.245L75.7,368.116a11.927,11.927,0,0,0-2.206-1.023l-.282-3.392-4.585-.391-.849,3.287a12,12,0,0,0-2.374.643l-2.377-2.4-.108.076-3.657,2.571,1.459,3.058a11.864,11.864,0,0,0-1.4,2.026l-3.364-.308-1.18,4.445,3.1,1.415a11.631,11.631,0,0,0,.23,2.43l-2.8,1.941,1.956,4.163,3.319-.919a11.607,11.607,0,0,0,1.713,1.686l-.905,3.319,4.174,1.936,1.971-2.866a11.872,11.872,0,0,0,2.365.191l1.454,3.149,4.439-1.2-.17-1.772-.165-1.706c.331-.19.656-.394.973-.616a11.629,11.629,0,0,0,.954-.746l3.151,1.486,2.629-3.775-2.489-2.447a11.823,11.823,0,0,0,.606-2.286Zm-10.766,5.02a7.717,7.717,0,0,1-.961.563,7.331,7.331,0,0,1-7.481-12.563,7.613,7.613,0,0,1,.9-.529,7.331,7.331,0,0,1,7.544,12.529Z" transform="translate(12.276 4.533)" fill="#f62f48"/>
    <g id="Grupo_89362" data-name="Grupo 89362" transform="translate(109.81 363.436)">
      <g id="Grupo_89360" data-name="Grupo 89360" transform="translate(0)">
        <g id="Grupo_89359" data-name="Grupo 89359" transform="translate(2.232)">
          <g id="Grupo_89357" data-name="Grupo 89357">
            <path id="Trazado_116229" data-name="Trazado 116229" d="M106.884,369.645v6.027h-4.141v-6.027a5.112,5.112,0,0,0-5.1-5.1H93.693a5.107,5.107,0,0,0-5.1,5.1v6.027H84.451v-6.027a9.253,9.253,0,0,1,9.242-9.242h3.948c.256,0,.511.014.76.035A9.253,9.253,0,0,1,106.884,369.645Z" transform="translate(-84.451 -360.403)" fill="#14b0bf"/>
          </g>
          <g id="Grupo_89358" data-name="Grupo 89358" transform="translate(2.182 0.035)">
            <path id="Trazado_116230" data-name="Trazado 116230" d="M106.141,369.633V374.7h-2.333v-5.632a4.894,4.894,0,0,0-5-4.77H94.946a5.139,5.139,0,0,0-1.546.235h-.449a5.107,5.107,0,0,0-5.1,5.1V374.7H85.89v-5.632a8.869,8.869,0,0,1,9.056-8.642h2.712A9.253,9.253,0,0,1,106.141,369.633Z" transform="translate(-85.89 -360.426)" fill="#17c5cc" opacity="0.7" style="mix-blend-mode: overlay;isolation: isolate"/>
          </g>
        </g>
        <path id="Trazado_116231" data-name="Trazado 116231" d="M108.724,386.537V371.852a3.007,3.007,0,0,0-3.008-3.008H85.545a2.994,2.994,0,0,0-1.713.54l24.046,19.237A2.993,2.993,0,0,0,108.724,386.537Z" transform="translate(-82.539 -356.046)" fill="#17c5cc"/>
        <path id="Trazado_116232" data-name="Trazado 116232" d="M84.272,369.2a3,3,0,0,0-1.293,2.468v14.685a3.007,3.007,0,0,0,3.006,3.006h20.171a2.989,2.989,0,0,0,2.162-.923Z" transform="translate(-82.979 -355.863)" fill="#14b0bf"/>
        <path id="Rectángulo_15662" data-name="Rectángulo 15662" d="M1.518,0H20.776a1.517,1.517,0,0,1,1.517,1.517v13.6a1.517,1.517,0,0,1-1.517,1.517H1.517A1.517,1.517,0,0,1,0,15.115V1.518A1.518,1.518,0,0,1,1.518,0Z" transform="translate(1.946 14.213)" fill="#939598" opacity="0.7" style="mix-blend-mode: overlay;isolation: isolate"/>
      </g>
      <g id="Grupo_89361" data-name="Grupo 89361" transform="translate(11.41 20.895)">
        <path id="Trazado_116233" data-name="Trazado 116233" d="M94.4,376.132a1.947,1.947,0,1,1-1.947-1.947A1.946,1.946,0,0,1,94.4,376.132Z" transform="translate(-90.505 -374.185)" fill="#2a445d"/>
        <rect id="Rectángulo_15663" data-name="Rectángulo 15663" width="2.245" height="6.139" transform="translate(0.824 1.197)" fill="#2a445d"/>
      </g>
    </g>
  </g>
</svg>
