<svg xmlns="http://www.w3.org/2000/svg" width="105.001" height="87.608" viewBox="0 0 105.001 87.608">
  <g id="Grupo_86395" data-name="Grupo 86395" transform="translate(-15.64 -55.452)">
    <rect id="Rectángulo_15607" data-name="Rectángulo 15607" width="34.074" height="21.952" rx="10" transform="translate(20.791 115.661)" fill="#f8af23"/>
    <path id="Trazado_116188" data-name="Trazado 116188" d="M73.3,333.288a2.184,2.184,0,0,0-2.184-2.184H41.408a2.184,2.184,0,0,0-2.184,2.184v4.057H73.3Z" transform="translate(-18.433 -215.443)" fill="#9e9e9e"/>
    <rect id="Rectángulo_15608" data-name="Rectángulo 15608" width="32.262" height="11.001" rx="5.5" transform="translate(83.228 91.359)" fill="#9e9e9e"/>
    <rect id="Rectángulo_15609" data-name="Rectángulo 15609" width="32.262" height="11.001" rx="5.5" transform="translate(83.228 102.36)" fill="#9e9e9e"/>
    <rect id="Rectángulo_15610" data-name="Rectángulo 15610" width="32.262" height="11.001" rx="5.5" transform="translate(83.228 80.358)" fill="#9e9e9e"/>
    <path id="Trazado_116189" data-name="Trazado 116189" d="M448.088,169.48h-4.15a2.149,2.149,0,0,1,2.149,2.149h0v6.7a2.149,2.149,0,0,1-2.149,2.149h4.15a2.149,2.149,0,0,0,2.149-2.149h0v-6.7a2.149,2.149,0,0,0-2.149-2.149Z" transform="translate(-334.748 -89.122)" fill="#cecece"/>
    <path id="Trazado_116190" data-name="Trazado 116190" d="M448.088,219.844h-4.15a2.149,2.149,0,0,1,2.149,2.149h0v6.7a2.149,2.149,0,0,1-2.149,2.149h4.15a2.149,2.149,0,0,0,2.149-2.149h0v-6.7a2.149,2.149,0,0,0-2.149-2.149Z" transform="translate(-334.748 -128.485)" fill="#cecece"/>
    <path id="Trazado_116191" data-name="Trazado 116191" d="M448.088,270.2h-4.15a2.149,2.149,0,0,1,2.149,2.149h0v6.7a2.149,2.149,0,0,1-2.149,2.149h4.15a2.149,2.149,0,0,0,2.149-2.149h0v-6.7a2.149,2.149,0,0,0-2.147-2.151Z" transform="translate(-334.748 -167.842)" fill="#cecece"/>
    <rect id="Rectángulo_15611" data-name="Rectángulo 15611" width="3.077" height="3.077" rx="1.538" transform="translate(108.898 95.321)" fill="#f8af23"/>
    <path id="Trazado_116192" data-name="Trazado 116192" d="M341.164,237.984h17.11v3.077h-17.11Z" transform="translate(-254.422 -142.663)" fill="#f8af23"/>
    <rect id="Rectángulo_15612" data-name="Rectángulo 15612" width="3.077" height="3.077" rx="1.538" transform="translate(108.898 84.321)" fill="#f8af23"/>
    <path id="Trazado_116193" data-name="Trazado 116193" d="M341.164,187.62h17.11V190.7h-17.11Z" transform="translate(-254.422 -103.299)" fill="#f8af23"/>
    <rect id="Rectángulo_15613" data-name="Rectángulo 15613" width="3.077" height="3.077" rx="1.538" transform="translate(108.898 106.322)" fill="#f8af23"/>
    <path id="Trazado_116194" data-name="Trazado 116194" d="M341.164,288.348h17.11v3.077h-17.11Z" transform="translate(-254.422 -182.026)" fill="#f8af23"/>
    <rect id="Rectángulo_15614" data-name="Rectángulo 15614" width="34.074" height="21.952" rx="10" transform="translate(20.791 56.107)" fill="#63bce7"/>
    <path id="Trazado_116195" data-name="Trazado 116195" d="M43.374,78.217V60.634a2.184,2.184,0,0,1,2.184-2.184h-4.15a2.184,2.184,0,0,0-2.184,2.184V78.217A2.184,2.184,0,0,0,41.408,80.4h4.15A2.184,2.184,0,0,1,43.374,78.217Z" transform="translate(-18.433 -2.343)" fill="#6377e7"/>
    <rect id="Rectángulo_15615" data-name="Rectángulo 15615" width="34.074" height="21.952" rx="10" transform="translate(20.791 85.884)" fill="#f46275"/>
    <path id="Trazado_116196" data-name="Trazado 116196" d="M43.374,214.545V196.962a2.184,2.184,0,0,1,2.184-2.184h-4.15a2.184,2.184,0,0,0-2.184,2.184v17.583a2.184,2.184,0,0,0,2.184,2.184h4.15A2.184,2.184,0,0,1,43.374,214.545Z" transform="translate(-18.433 -108.894)" fill="#f43075"/>
    <path id="Trazado_116197" data-name="Trazado 116197" d="M43.374,350.867V333.284a2.184,2.184,0,0,1,2.184-2.184h-4.15a2.184,2.184,0,0,0-2.184,2.184v17.583a2.184,2.184,0,0,0,2.184,2.184h4.15A2.184,2.184,0,0,1,43.374,350.867Z" transform="translate(-18.433 -215.44)" fill="#f87023"/>
    <path id="Trazado_116198" data-name="Trazado 116198" d="M73.3,60.634a2.184,2.184,0,0,0-2.184-2.184H41.408a2.184,2.184,0,0,0-2.184,2.184v4.057H73.3Z" transform="translate(-18.433 -2.343)" fill="#9e9e9e"/>
    <path id="Trazado_116199" data-name="Trazado 116199" d="M45.558,58.45h-4.15a2.184,2.184,0,0,0-2.184,2.184v4.057h4.15V60.634A2.184,2.184,0,0,1,45.558,58.45Z" transform="translate(-18.433 -2.343)" fill="#707070"/>
    <path id="Trazado_116200" data-name="Trazado 116200" d="M73.3,196.962a2.184,2.184,0,0,0-2.184-2.184H41.408a2.184,2.184,0,0,0-2.184,2.184v4.057H73.3Z" transform="translate(-18.433 -108.894)" fill="#9e9e9e"/>
    <path id="Trazado_116201" data-name="Trazado 116201" d="M45.558,194.778h-4.15a2.184,2.184,0,0,0-2.184,2.184v4.057h4.15v-4.057A2.184,2.184,0,0,1,45.558,194.778Z" transform="translate(-18.433 -108.894)" fill="#707070"/>
    <path id="Trazado_116202" data-name="Trazado 116202" d="M45.558,331.1h-4.15a2.184,2.184,0,0,0-2.184,2.184v4.057h4.15v-4.057A2.184,2.184,0,0,1,45.558,331.1Z" transform="translate(-18.433 -215.443)" fill="#707070"/>
    <g id="Grupo_86394" data-name="Grupo 86394" transform="translate(15.64 55.452)">
      <path id="Trazado_116203" data-name="Trazado 116203" d="M24.165,450.548H16.3a.655.655,0,0,0,0,1.311h7.863a.655.655,0,0,0,0-1.311Z" transform="translate(-15.645 -364.25)" fill="#3f3679"/>
      <path id="Trazado_116204" data-name="Trazado 116204" d="M462.879,450.548h-7.863a.655.655,0,0,0,0,1.311h7.863a.655.655,0,0,0,0-1.311Z" transform="translate(-358.533 -364.25)" fill="#3f3679"/>
      <path id="Trazado_116205" data-name="Trazado 116205" d="M151.748,450.548H72.7a.655.655,0,0,0,0,1.311h79.051a.655.655,0,0,0,0-1.311Z" transform="translate(-59.722 -364.25)" fill="#3f3679"/>
      <path id="Trazado_116206" data-name="Trazado 116206" d="M16.3,138.267h103.69a.655.655,0,0,0,0-1.311H55.07a2.819,2.819,0,0,0,.451-1.529v-8.135H91.056a8.968,8.968,0,0,0,8.958-8.958v-4.317H113.34a2.807,2.807,0,0,0,2.8-2.8v-6.7a2.8,2.8,0,0,0-1-2.149,2.8,2.8,0,0,0,1-2.149v-6.7a2.8,2.8,0,0,0-1-2.148,2.8,2.8,0,0,0,1-2.149v-6.7a2.807,2.807,0,0,0-2.8-2.8H100.014V75.386a8.968,8.968,0,0,0-8.958-8.958H55.521V58.292a2.843,2.843,0,0,0-2.84-2.84H22.976a2.843,2.843,0,0,0-2.84,2.84V75.875a2.843,2.843,0,0,0,2.84,2.84H52.681a2.843,2.843,0,0,0,2.84-2.84V67.738H91.056A7.656,7.656,0,0,1,98.7,75.386V79.7H85.377a2.807,2.807,0,0,0-2.8,2.8v6.7a2.8,2.8,0,0,0,1,2.149,2.8,2.8,0,0,0-1,2.148v6.7a2.8,2.8,0,0,0,1,2.149,2.8,2.8,0,0,0-1,2.149v6.7a2.807,2.807,0,0,0,2.8,2.8H98.7v4.317a7.656,7.656,0,0,1-7.648,7.648H55.521v-8.135a2.843,2.843,0,0,0-2.84-2.84H22.976a2.843,2.843,0,0,0-2.84,2.84v17.582a2.819,2.819,0,0,0,.451,1.529H16.3a.655.655,0,0,0,0,1.311Zm5.151-79.975a1.529,1.529,0,0,1,1.529-1.529H52.681a1.529,1.529,0,0,1,1.529,1.529v3.4H21.447ZM54.21,75.875A1.529,1.529,0,0,1,52.681,77.4H22.976a1.529,1.529,0,0,1-1.529-1.529V63H54.21ZM83.883,89.209v-6.7a1.5,1.5,0,0,1,1.494-1.494H113.34a1.5,1.5,0,0,1,1.494,1.494v6.7A1.5,1.5,0,0,1,113.34,90.7H85.377A1.5,1.5,0,0,1,83.883,89.209Zm0,11v-6.7a1.5,1.5,0,0,1,1.494-1.493H113.34a1.5,1.5,0,0,1,1.494,1.493v6.7a1.5,1.5,0,0,1-1.494,1.494H85.377a1.5,1.5,0,0,1-1.494-1.494Zm0,11v-6.7a1.5,1.5,0,0,1,1.494-1.494H113.34a1.5,1.5,0,0,1,1.494,1.494v6.7a1.5,1.5,0,0,1-1.494,1.494H85.377a1.5,1.5,0,0,1-1.494-1.494Zm-62.436,6.634a1.529,1.529,0,0,1,1.529-1.529H52.681a1.529,1.529,0,0,1,1.529,1.529v3.4H21.447Zm0,17.583v-12.87H54.21v12.87a1.529,1.529,0,0,1-1.529,1.529H22.976a1.529,1.529,0,0,1-1.529-1.529Z" transform="translate(-15.64 -55.452)" fill="#3f3679"/>
      <path id="Trazado_116207" data-name="Trazado 116207" d="M442.709,234.984h-1.828a1.281,1.281,0,0,0-1.28,1.28v1.828a1.281,1.281,0,0,0,1.28,1.28h1.828a1.281,1.281,0,0,0,1.28-1.28v-1.828A1.281,1.281,0,0,0,442.709,234.984Zm-.031,3.077-1.766.03-.031-1.8,1.8-.031Z" transform="translate(-346.999 -195.77)" fill="#3f3679"/>
      <path id="Trazado_116208" data-name="Trazado 116208" d="M355.93,234.984h-17.11a.655.655,0,0,0-.655.655h0v3.077a.655.655,0,0,0,.655.655h17.11a.655.655,0,0,0,.655-.655v-3.077a.655.655,0,0,0-.655-.655Zm-.655,3.077h-15.8v-1.766h15.8Z" transform="translate(-267.717 -195.77)" fill="#3f3679"/>
      <path id="Trazado_116209" data-name="Trazado 116209" d="M442.709,184.62h-1.828a1.281,1.281,0,0,0-1.28,1.28v1.828a1.281,1.281,0,0,0,1.28,1.28h1.828a1.281,1.281,0,0,0,1.28-1.28V185.9A1.281,1.281,0,0,0,442.709,184.62Zm-.031,3.077-1.766.03-.031-1.8,1.8-.031Z" transform="translate(-346.999 -156.407)" fill="#3f3679"/>
      <path id="Trazado_116210" data-name="Trazado 116210" d="M355.93,184.62h-17.11a.655.655,0,0,0-.655.655v3.077a.655.655,0,0,0,.655.655h17.11a.655.655,0,0,0,.655-.655v-3.077A.655.655,0,0,0,355.93,184.62Zm-.655,3.077h-15.8v-1.766h15.8Z" transform="translate(-267.717 -156.407)" fill="#3f3679"/>
      <path id="Trazado_116211" data-name="Trazado 116211" d="M440.88,289.729h1.828a1.281,1.281,0,0,0,1.28-1.28v-1.83a1.281,1.281,0,0,0-1.28-1.28H440.88a1.281,1.281,0,0,0-1.28,1.28v1.828A1.281,1.281,0,0,0,440.88,289.729Zm1.8-3.108v1.8l-1.766.03-.031-1.8Z" transform="translate(-346.997 -235.127)" fill="#3f3679"/>
      <path id="Trazado_116212" data-name="Trazado 116212" d="M356.585,289.08V286a.655.655,0,0,0-.655-.655h-17.11a.655.655,0,0,0-.655.655v3.077a.655.655,0,0,0,.655.655h17.11A.655.655,0,0,0,356.585,289.08Zm-1.311-.655h-15.8v-1.767h15.8Z" transform="translate(-267.717 -235.133)" fill="#3f3679"/>
      <path id="Trazado_116213" data-name="Trazado 116213" d="M39.064,215.04H68.769a2.843,2.843,0,0,0,2.84-2.84v-8.136H93.145L91.212,206a.655.655,0,0,0,.911.943l.016-.016,3.052-3.051a.655.655,0,0,0,0-.927l-3.052-3.052a.655.655,0,1,0-.943.911l.016.016,1.933,1.934H71.609v-8.137a2.843,2.843,0,0,0-2.84-2.84H39.064a2.843,2.843,0,0,0-2.84,2.84V212.2A2.843,2.843,0,0,0,39.064,215.04ZM70.3,212.2a1.529,1.529,0,0,1-1.529,1.529H39.064a1.529,1.529,0,0,1-1.529-1.529V199.33H70.3ZM37.535,194.618a1.529,1.529,0,0,1,1.529-1.529H68.769a1.529,1.529,0,0,1,1.529,1.529v3.4H37.535Z" transform="translate(-31.728 -162.001)" fill="#3f3679"/>
    </g>
  </g>
</svg>
