<svg xmlns="http://www.w3.org/2000/svg" width="128.342" height="96.582" viewBox="0 0 128.342 96.582">
  <g id="_2" data-name="2" transform="translate(-25.379 -240.327)">
    <g id="_10" data-name="10" transform="translate(25.379 261.861)">
      <g id="Grupo_89407" data-name="Grupo 89407" transform="translate(9.001 4.151)">
        <g id="Grupo_89405" data-name="Grupo 89405" transform="translate(2.656 2.29)">
          <path id="Trazado_116359" data-name="Trazado 116359" d="M113.216,318.747h-80.4V258.166h80.4Zm-79.031-1.576h77.659V259.742H34.185Z" transform="translate(-32.813 -258.166)" fill="#14b0bf"/>
        </g>
        <path id="Trazado_116360" data-name="Trazado 116360" d="M38.041,297.561A3.461,3.461,0,1,1,34.58,294.1,3.462,3.462,0,0,1,38.041,297.561Z" transform="translate(-31.119 -235.46)" fill="#14b0bf"/>
        <g id="Grupo_89406" data-name="Grupo 89406" transform="translate(77.9)">
          <path id="Trazado_116361" data-name="Trazado 116361" d="M87.717,260.167a3.461,3.461,0,1,1-3.461-3.461A3.461,3.461,0,0,1,87.717,260.167Z" transform="translate(-80.795 -256.706)" fill="#14b0bf"/>
        </g>
      </g>
      <g id="Grupo_89418" data-name="Grupo 89418">
        <g id="Grupo_89415" data-name="Grupo 89415" transform="translate(3.072)">
          <path id="Trazado_116362" data-name="Trazado 116362" d="M69.44,254.059H29.27a1.975,1.975,0,0,0-1.932,2.006v24.91a1.976,1.976,0,0,0,1.932,2.006H69.44a1.976,1.976,0,0,0,1.932-2.006v-24.91A1.975,1.975,0,0,0,69.44,254.059Z" transform="translate(-27.338 -254.059)" fill="#cfd8dc"/>
          <path id="Trazado_116363" data-name="Trazado 116363" d="M67.614,255.167H29.925a1.568,1.568,0,0,0-1.556,1.574v22.972a1.579,1.579,0,0,0,.623,1.256l39.394-25.592A1.521,1.521,0,0,0,67.614,255.167Z" transform="translate(-26.752 -253.429)" fill="#355168"/>
          <path id="Trazado_116364" data-name="Trazado 116364" d="M68.16,255.3,28.766,280.893a1.535,1.535,0,0,0,.933.318H67.388a1.569,1.569,0,0,0,1.556-1.574V256.665A1.581,1.581,0,0,0,68.16,255.3Z" transform="translate(-26.527 -253.353)" fill="#2a445d"/>
          <g id="Grupo_89414" data-name="Grupo 89414" transform="translate(9.783 3.89)">
            <path id="Trazado_116365" data-name="Trazado 116365" d="M58.667,256.539H33.577v23.9H51.249l7.418-5.845Z" transform="translate(-33.577 -256.539)" fill="#0ec0c0"/>
            <path id="Trazado_116366" data-name="Trazado 116366" d="M56.586,257.467H34.55v20.987H50.072l6.515-5.134Z" transform="translate(-33.023 -256.012)" fill="#fff"/>
            <g id="Grupo_89413" data-name="Grupo 89413" transform="translate(2.73 4.078)">
              <g id="Grupo_89412" data-name="Grupo 89412">
                <g id="Grupo_89408" data-name="Grupo 89408" transform="translate(0 7.715)">
                  <rect id="Rectángulo_15675" data-name="Rectángulo 15675" width="18.921" height="2.514" fill="#306b88"/>
                </g>
                <g id="Grupo_89409" data-name="Grupo 89409">
                  <rect id="Rectángulo_15676" data-name="Rectángulo 15676" width="18.921" height="2.514" fill="#306b88"/>
                </g>
                <g id="Grupo_89410" data-name="Grupo 89410" transform="translate(0 3.858)">
                  <rect id="Rectángulo_15677" data-name="Rectángulo 15677" width="18.921" height="2.513" fill="#306b88"/>
                </g>
                <g id="Grupo_89411" data-name="Grupo 89411" transform="translate(0 11.573)">
                  <rect id="Rectángulo_15678" data-name="Rectángulo 15678" width="18.921" height="2.513" fill="#306b88"/>
                </g>
              </g>
            </g>
            <path id="Trazado_116367" data-name="Trazado 116367" d="M52.264,268.05l-7.418,5.844V268.05Z" transform="translate(-27.174 -249.999)" fill="#2dd"/>
          </g>
        </g>
        <g id="Grupo_89417" data-name="Grupo 89417" transform="translate(0 28.828)">
          <path id="Trazado_116368" data-name="Trazado 116368" d="M75.833,276.055l-.025-.638-50.429.425v.251a1.446,1.446,0,0,0,1.593,1.223H74.241C75.138,277.316,75.86,276.747,75.833,276.055Z" transform="translate(-25.379 -270.752)" fill="#90a4ae"/>
          <g id="Grupo_89416" data-name="Grupo 89416" transform="translate(0.001)">
            <path id="Trazado_116369" data-name="Trazado 116369" d="M71.21,272.442H30.053a2.935,2.935,0,0,0-2.162.709l-2.435,3.956c-.3.491.339.9,1.433.9H74.374c1.095,0,1.736-.412,1.433-.9l-2.437-3.956A2.93,2.93,0,0,0,71.21,272.442Z" transform="translate(-25.38 -272.442)" fill="#cfd8dc"/>
            <path id="Trazado_116370" data-name="Trazado 116370" d="M68.044,273.411H30.469a3.1,3.1,0,0,0-1.75.323l-.908,1.683c-.107.2.56.359,1.482.359H69.22c.921,0,1.587-.163,1.482-.359l-.908-1.683A3.1,3.1,0,0,0,68.044,273.411Z" transform="translate(-24.005 -271.891)" fill="#b0bec5"/>
            <path id="Trazado_116371" data-name="Trazado 116371" d="M66.964,272.689H30.519a7.619,7.619,0,0,0-1.576.086l-.235.436a6.028,6.028,0,0,0,1.505.089H67.268a6.046,6.046,0,0,0,1.507-.089l-.237-.436A7.6,7.6,0,0,0,66.964,272.689Z" transform="translate(-23.49 -272.302)" fill="#b0bec5"/>
            <path id="Trazado_116372" data-name="Trazado 116372" d="M54.45,275.041H35.941c-.428,0-.793.064-.812.143l-.18.721c-.02.083.321.151.759.151H54.684c.436,0,.778-.067.757-.151l-.179-.721C55.242,275.105,54.877,275.041,54.45,275.041Z" transform="translate(-19.944 -270.965)" fill="#b0bec5"/>
          </g>
        </g>
      </g>
      <g id="Grupo_89436" data-name="Grupo 89436" transform="translate(55.234 32.991)">
        <g id="Grupo_89433" data-name="Grupo 89433" transform="translate(3.649)">
          <path id="Trazado_116373" data-name="Trazado 116373" d="M112.959,275.1H65.224a2.348,2.348,0,0,0-2.3,2.384v29.6a2.349,2.349,0,0,0,2.3,2.385h47.735a2.349,2.349,0,0,0,2.3-2.385v-29.6A2.348,2.348,0,0,0,112.959,275.1Z" transform="translate(-62.928 -275.097)" fill="#cfd8dc"/>
          <path id="Trazado_116374" data-name="Trazado 116374" d="M110.788,276.414H66a1.864,1.864,0,0,0-1.847,1.869v27.3a1.875,1.875,0,0,0,.74,1.491l46.81-30.411A1.825,1.825,0,0,0,110.788,276.414Z" transform="translate(-62.231 -274.349)" fill="#355168"/>
          <path id="Trazado_116375" data-name="Trazado 116375" d="M111.436,276.573l-46.81,30.411a1.823,1.823,0,0,0,1.107.378H110.52a1.863,1.863,0,0,0,1.847-1.869v-27.3A1.877,1.877,0,0,0,111.436,276.573Z" transform="translate(-61.963 -274.258)" fill="#2a445d"/>
          <g id="Grupo_89425" data-name="Grupo 89425" transform="translate(7.681 3.394)">
            <path id="Trazado_116376" data-name="Trazado 116376" d="M85.959,277.261H67.826v29.71H80.6l5.362-7.267Z" transform="translate(-67.826 -277.261)" fill="#0ec0c0"/>
            <path id="Trazado_116377" data-name="Trazado 116377" d="M84.456,278.415H68.53v26.093H79.747l4.708-6.382Z" transform="translate(-67.426 -276.606)" fill="#fff"/>
            <g id="Grupo_89424" data-name="Grupo 89424" transform="translate(1.972 5.071)">
              <g id="Grupo_89423" data-name="Grupo 89423">
                <g id="Grupo_89419" data-name="Grupo 89419" transform="translate(0 9.593)">
                  <rect id="Rectángulo_15679" data-name="Rectángulo 15679" width="13.675" height="3.125" fill="#306b88"/>
                </g>
                <g id="Grupo_89420" data-name="Grupo 89420">
                  <rect id="Rectángulo_15680" data-name="Rectángulo 15680" width="13.675" height="3.125" fill="#306b88"/>
                </g>
                <g id="Grupo_89421" data-name="Grupo 89421" transform="translate(0 4.796)">
                  <rect id="Rectángulo_15681" data-name="Rectángulo 15681" width="13.675" height="3.125" fill="#306b88"/>
                </g>
                <g id="Grupo_89422" data-name="Grupo 89422" transform="translate(0 14.389)">
                  <rect id="Rectángulo_15682" data-name="Rectángulo 15682" width="13.675" height="3.125" fill="#306b88"/>
                </g>
              </g>
            </g>
            <path id="Trazado_116378" data-name="Trazado 116378" d="M81.332,291.573,75.97,298.84v-7.267Z" transform="translate(-63.199 -269.13)" fill="#2dd"/>
          </g>
          <g id="Grupo_89432" data-name="Grupo 89432" transform="translate(27.659 3.394)">
            <path id="Trazado_116379" data-name="Trazado 116379" d="M98.7,277.261H80.566v29.71H93.337L98.7,299.7Z" transform="translate(-80.566 -277.261)" fill="#0ec0c0"/>
            <path id="Trazado_116380" data-name="Trazado 116380" d="M97.2,278.415H81.27v26.093H92.487l4.708-6.382Z" transform="translate(-80.166 -276.606)" fill="#fff"/>
            <g id="Grupo_89431" data-name="Grupo 89431" transform="translate(1.972 5.071)">
              <g id="Grupo_89430" data-name="Grupo 89430">
                <g id="Grupo_89426" data-name="Grupo 89426" transform="translate(0 9.593)">
                  <rect id="Rectángulo_15683" data-name="Rectángulo 15683" width="13.675" height="3.125" fill="#306b88"/>
                </g>
                <g id="Grupo_89427" data-name="Grupo 89427">
                  <rect id="Rectángulo_15684" data-name="Rectángulo 15684" width="13.675" height="3.125" fill="#306b88"/>
                </g>
                <g id="Grupo_89428" data-name="Grupo 89428" transform="translate(0 4.796)">
                  <rect id="Rectángulo_15685" data-name="Rectángulo 15685" width="13.675" height="3.125" fill="#306b88"/>
                </g>
                <g id="Grupo_89429" data-name="Grupo 89429" transform="translate(0 14.389)">
                  <rect id="Rectángulo_15686" data-name="Rectángulo 15686" width="13.675" height="3.125" fill="#306b88"/>
                </g>
              </g>
            </g>
            <path id="Trazado_116381" data-name="Trazado 116381" d="M94.072,291.573,88.71,298.84v-7.267Z" transform="translate(-75.938 -269.13)" fill="#2dd"/>
          </g>
        </g>
        <g id="Grupo_89435" data-name="Grupo 89435" transform="translate(0 34.255)">
          <path id="Trazado_116382" data-name="Trazado 116382" d="M120.554,301.236l-.028-.759-59.924.5v.3a1.718,1.718,0,0,0,1.893,1.455h56.169C119.729,302.734,120.585,302.055,120.554,301.236Z" transform="translate(-60.601 -294.932)" fill="#90a4ae"/>
          <g id="Grupo_89434" data-name="Grupo 89434" transform="translate(0)">
            <path id="Trazado_116383" data-name="Trazado 116383" d="M115.06,296.941h-48.9a3.489,3.489,0,0,0-2.57.842l-2.895,4.7c-.361.585.4,1.074,1.7,1.074h56.426c1.3,0,2.064-.489,1.7-1.074l-2.9-4.7A3.485,3.485,0,0,0,115.06,296.941Z" transform="translate(-60.601 -296.941)" fill="#cfd8dc"/>
            <path id="Trazado_116384" data-name="Trazado 116384" d="M111.3,298.094H66.648a3.7,3.7,0,0,0-2.079.383l-1.079,2c-.125.234.666.427,1.761.427H112.7c1.093,0,1.885-.193,1.759-.427l-1.079-2A3.7,3.7,0,0,0,111.3,298.094Z" transform="translate(-58.967 -296.286)" fill="#b0bec5"/>
            <path id="Trazado_116385" data-name="Trazado 116385" d="M110.015,297.234H66.707a8.934,8.934,0,0,0-1.872.105l-.279.518a7.247,7.247,0,0,0,1.789.107h44.033a7.276,7.276,0,0,0,1.791-.107l-.281-.518A8.934,8.934,0,0,0,110.015,297.234Z" transform="translate(-58.355 -296.775)" fill="#b0bec5"/>
            <path id="Trazado_116386" data-name="Trazado 116386" d="M95.144,300.03H73.15c-.508,0-.941.075-.966.171l-.212.856c-.025.1.381.177.9.177H95.421c.521,0,.925-.08.9-.177l-.213-.856C96.086,300.105,95.652,300.03,95.144,300.03Z" transform="translate(-54.141 -295.186)" fill="#b0bec5"/>
          </g>
        </g>
      </g>
    </g>
    <path id="_7" data-name="7" d="M105.788,270.116l-.772-8.586-6.467-.51a21.917,21.917,0,0,0-1.9-4.062l3.718-5.269-6.111-6.081-5.224,3.726a22.078,22.078,0,0,0-4.135-1.919l-.528-6.356-8.59-.732-1.59,6.161a22.124,22.124,0,0,0-4.449,1.2L65.284,243.2l-.2.143-6.85,4.817,2.732,5.73a22.308,22.308,0,0,0-2.627,3.795l-6.3-.576-2.21,8.33,5.815,2.649a21.785,21.785,0,0,0,.433,4.557l-5.244,3.635,3.665,7.8,6.219-1.72a22.115,22.115,0,0,0,3.21,3.158l-1.7,6.218,7.82,3.627,3.693-5.369a22.55,22.55,0,0,0,4.433.359l2.725,5.9,8.319-2.249-.318-3.323-.312-3.2c.619-.354,1.231-.737,1.825-1.153.626-.442,1.218-.908,1.788-1.4l5.9,2.785,4.926-7.074-4.662-4.587a22.273,22.273,0,0,0,1.137-4.281Zm-20.174,9.407a13.736,13.736,0,1,1,3.331-19.152A13.654,13.654,0,0,1,85.613,279.523Z" transform="translate(13.888)" fill="#f62f48"/>
    <g id="Grupo_89441" data-name="Grupo 89441" transform="translate(48.297 245.898)">
      <g id="_8" data-name="8">
        <g id="Grupo_89437" data-name="Grupo 89437" transform="translate(59.904 48.418)">
          <path id="Trazado_116387" data-name="Trazado 116387" d="M78.238,279.991l2.735-5.023a.6.6,0,0,1,.8-.121L97.1,282.623c.422.212.652.605.51.869l-3.185,5.848c-.143.263-.6.282-1.007.044L78.57,280.73A.6.6,0,0,1,78.238,279.991Z" transform="translate(-78.194 -274.755)" fill="#b1bac3"/>
          <path id="Trazado_116388" data-name="Trazado 116388" d="M86.971,286.268l3.811-7c.13-.24.593-.245,1.026-.008l4.455,2.426c.434.235.682.627.552.867l-3.811,7c-.13.24-.593.243-1.027.008l-4.455-2.426C87.088,286.9,86.839,286.508,86.971,286.268Z" transform="translate(-73.228 -272.292)" fill="#788f9b"/>
          <path id="Trazado_116389" data-name="Trazado 116389" d="M87.43,287.26l4.314-7.924c.194-.356.963-.334,1.711.055l23.588,12.067c1,.517,1.631,1.284,1.4,1.7l-5.023,9.222c-.226.417-1.214.3-2.189-.257L88.4,288.667C87.671,288.25,87.234,287.618,87.43,287.26Z" transform="translate(-72.973 -272.295)" fill="#0ec0c0"/>
          <path id="Trazado_116390" data-name="Trazado 116390" d="M84.772,276.38l-3.351,6.153.713.415,5.446,3.178.712.415,3.575-6.565Z" transform="translate(-76.361 -273.831)" fill="#788f9b"/>
          <path id="Trazado_116391" data-name="Trazado 116391" d="M81.534,284.321l4.505-8.274a.737.737,0,0,1,1.005-.122l4.087,2.225c.4.216.6.626.442.911l-4.505,8.272a.739.739,0,0,1-1.005.124l-4.087-2.225C81.578,285.014,81.379,284.605,81.534,284.321Z" transform="translate(-76.327 -274.166)" fill="#0ec0c0"/>
          <path id="Trazado_116392" data-name="Trazado 116392" d="M80.537,275.154,122.088,297.9l-1.972,3.62L78.565,278.775Z" transform="translate(-77.983 -274.528)" fill="#b1bac3" opacity="0.54" style="mix-blend-mode: overlay;isolation: isolate"/>
        </g>
        <g id="Grupo_89440" data-name="Grupo 89440">
          <g id="Grupo_89438" data-name="Grupo 89438">
            <path id="Trazado_116393" data-name="Trazado 116393" d="M87.251,309.238a34.015,34.015,0,1,0-44.569-18.1A34.017,34.017,0,0,0,87.251,309.238Zm-1.907-4.52a29.109,29.109,0,1,1,15.489-38.141A29.11,29.11,0,0,1,85.344,304.719Z" transform="translate(-39.994 -243.879)" fill="#b1bac3"/>
          </g>
          <g id="Grupo_89439" data-name="Grupo 89439" transform="translate(3.626 4.863)">
            <path id="Trazado_116394" data-name="Trazado 116394" d="M83.649,302.057a28.132,28.132,0,1,0-36.86-14.971A28.132,28.132,0,0,0,83.649,302.057Zm.427,2.751a30.1,30.1,0,1,1,15.967-39.417A30.069,30.069,0,0,1,84.075,304.808Z" transform="translate(-42.306 -246.98)" fill="#788f9b"/>
          </g>
        </g>
      </g>
      <path id="_9" data-name="9" d="M51.022,292.181a26.03,26.03,0,0,1-6.506-15.923c-.24-6.277.635-12.415,4.505-17.483a26.086,26.086,0,0,1,6.309-5.9,25.2,25.2,0,0,1,3.687-2.025c.964-.428,2.989-.655,3.739-1.3-3.878,3.364-7.367,7.372-9.147,12.188a21.577,21.577,0,0,0,2.134,18.572,20.419,20.419,0,0,0,6.684,6.721c3.02,1.836,6.619,1.816,9.6,3.522a9.829,9.829,0,0,1,4.565,4.75c2.451,6.317-5.859,7-9.994,6.16A28.316,28.316,0,0,1,51.022,292.181Z" transform="translate(-37.446 -240.659)" fill="#f0f1f1" opacity="0.34"/>
    </g>
    <path id="Trazado_116395" data-name="Trazado 116395" d="M75.222,294.724l-6.074-3.5V293.8H37.8V282.186a.942.942,0,1,0-1.885,0v12.561a.942.942,0,0,0,.942.942H69.148v2.54Z" transform="translate(5.986 23.248)" fill="#f62f48"/>
  </g>
</svg>
